<svg width="357" height="90" viewBox="0 0 357 90" fill="none" xmlns="http://www.w3.org/2000/svg">
<path d="M115.085 35.2343C115.085 28.7722 108.885 21.9952 98.1099 21.9952C86.0258 21.9952 72.7585 30.8926 70.727 48.651C68.6511 66.5832 79.7617 74.5517 90.9612 74.5517C102.161 74.5517 108.025 70.1696 114.023 64.3255C108.865 57.8231 102.205 60.828 100.929 61.4903C98.8163 62.6676 96.4238 63.2496 94.0065 63.1745C89.685 63.1745 85.2746 61.2278 85.2746 53.126C112.964 50.3796 115.081 41.6559 115.081 35.2343H115.085ZM101.361 36.2964C101.183 38.2876 100.392 41.6963 86.3691 43.6066C89.3174 33.0654 94.9717 32.2738 97.5687 32.2738C98.095 32.2498 98.6203 32.3393 99.1089 32.5364C99.5976 32.7334 100.038 33.0333 100.401 33.4156C100.763 33.798 101.039 34.2539 101.21 34.7524C101.38 35.2509 101.441 35.7802 101.389 36.3045L101.361 36.2964ZM54.4628 38.025L48.025 58.3481L43.4814 23.0614C33.3441 23.0614 27.8918 30.3231 25.0485 37.9806L17.1971 58.3926L16.0945 38.1987C15.4968 28.8126 6.92649 23.1018 0 23.1018L8.37641 74.1519C18.9984 74.1115 24.7334 66.8901 27.7343 59.2326L34.374 41.878C34.4346 42.5848 38.962 74.1559 38.962 74.1559C49.6325 74.1559 55.3675 67.3829 58.441 59.9879L73.3845 23.1058C62.8635 23.1058 57.3183 30.3231 54.4548 38.025H54.4628ZM154.245 21.87C147.674 21.87 142.653 25.4564 138.413 30.7229V30.6826L142.201 0C133.469 0 126.369 7.61713 125.004 18.9499L118.437 73.7561C123.465 73.7561 128.8 72.294 131.668 68.5743C134.229 71.8942 138.061 74.5517 143.752 74.5517C158.477 74.5517 168.578 57.3748 168.578 41.2561C168.49 26.5549 161.389 21.9103 154.289 21.9103L154.245 21.87ZM152.872 48.2149C151.337 57.2011 146.345 63.3118 141.543 63.3118C136.741 63.3118 134.62 61.143 134.62 61.143C135.549 53.2674 136.123 48.437 137.884 44.273C139.645 40.109 143.837 33.4693 148.203 33.4693C152.484 33.4693 154.422 39.1801 152.876 48.2108L152.872 48.2149ZM205.303 23.0654H195.028L195.069 22.5323C195.775 15.8037 197.363 12.2617 202.597 11.6842C206.171 11.3288 207.758 9.47092 208.154 7.43538L209.435 0.306948C188.837 0.173668 182.318 9.11147 180.658 22.7544L180.618 23.0654H180.396C177.044 23.0654 173.344 26.874 172.722 31.7003L172.5 33.4693H179.382L173.607 81.3691L171.838 89.9596C172.06 89.9596 172.322 90 172.54 90C182.193 89.6446 188.372 81.9871 189.737 70.8724L194.245 33.4612H197.476C200.65 33.4612 204.358 30.2706 205.004 24.9596L205.303 23.0654ZM258.744 22.1769C246.882 22.1769 235.683 30.941 232.25 44.7133C228.817 58.4855 234.019 74.7738 251.474 74.7738C268.93 74.7738 278.926 57.811 278.926 43.6914C278.942 29.6567 269.467 22.1729 258.748 22.1729L258.744 22.1769ZM263.55 47.7666C262.936 54.0105 260.198 63.4855 252.702 63.4855C245.206 63.4855 246.22 52.4192 246.947 47.1486C247.742 41.5267 250.872 33.5137 257.617 33.5137C263.683 33.5137 264.253 40.731 263.554 47.7706L263.55 47.7666ZM337.54 37.9806L331.103 58.3037C330.929 56.7084 326.563 23.017 326.563 23.017C316.426 23.017 310.998 30.2787 308.154 37.9362L300.303 58.3481C300.263 56.8861 299.2 38.1543 299.2 38.1543C298.562 28.7682 290 23.0573 283.045 23.0573L291.377 74.1074C301.999 74.067 307.734 66.8457 310.735 59.1882L317.351 41.8336C317.391 42.5404 321.939 74.1115 321.939 74.1115C332.609 74.1115 338.32 67.3384 341.418 59.9435L356.373 23.0614C345.88 23.0614 340.323 30.2787 337.5 37.9806H337.54ZM215.004 0.298874L206.361 70.2908L204.592 78.9257C204.81 78.9257 205.077 78.9661 205.295 78.9661C214.592 78.8328 221.208 70.6462 222.448 60.3271L227.427 20.1696C228.938 7.90388 221.664 0.290794 215.004 0.290794V0.298874Z" fill="black"/>
</svg>
