<svg width="442" height="90" viewBox="0 0 442 90" fill="none" xmlns="http://www.w3.org/2000/svg">
<path d="M250.895 33.4011H232.995V35.3002C238.594 35.3002 239.494 36.5001 239.494 43.6005V56.4007C239.494 63.4999 238.594 64.8001 232.995 64.8001C228.696 64.2002 225.795 61.8996 221.795 57.5002L217.196 52.5009C223.395 51.4001 226.695 47.5004 226.695 43.0998C226.695 37.6009 221.996 33.4011 213.196 33.4011H195.596V35.3002C201.195 35.3002 202.095 36.5001 202.095 43.6005V56.4007C202.095 63.4999 201.195 64.8001 195.596 64.8001V66.6994H215.495V64.8001C209.896 64.8001 208.996 63.4999 208.996 56.4007V52.8008H210.695L221.795 66.6994H250.895C265.195 66.6994 271.394 59.1005 271.394 49.9994C271.394 40.9006 265.195 33.4011 250.895 33.4011H250.895ZM208.996 49.6994V36.4009H213.095C217.595 36.4009 219.596 39.5 219.596 43.0998C219.596 46.6003 217.595 49.6994 213.095 49.6994H208.996V49.6994ZM251.195 63.6002H250.494C246.894 63.6002 246.395 62.7003 246.395 58.1001V36.4009H251.195C261.594 36.4009 263.494 43.9998 263.494 49.9002C263.494 56.0003 261.594 63.6002 251.195 63.6002V63.6002Z" fill="black"/>
<path d="M139.899 53.4008L146.799 32.9995C148.799 27.1003 147.899 25.4007 141.499 25.4007V23.4H160.299V25.4007C154 25.4007 152.5 26.9006 149.999 34.2006L138.599 68.4H137.3L127.099 37.1001L116.7 68.4H115.4L104.3 34.2006C101.9 26.9006 100.3 25.4007 94.5 25.4007V23.4H116.7V25.4007C110.799 25.4007 109.199 26.8003 111.3 32.9995L117.999 53.4008L128.099 23.4H130L139.899 53.4008V53.4008Z" fill="black"/>
<path d="M173.897 67.9997C162.898 67.9997 153.897 59.9001 153.897 49.9994C153.897 40.2004 162.898 32.0996 173.897 32.0996C184.897 32.0996 193.896 40.2004 193.896 49.9994C193.896 59.9001 184.897 67.9997 173.897 67.9997ZM173.897 35.2009C164.697 35.2009 161.497 43.5001 161.497 49.9994C161.497 56.6002 164.697 64.8001 173.897 64.8001C183.197 64.8001 186.397 56.6002 186.397 49.9994C186.397 43.5001 183.197 35.2009 173.897 35.2009V35.2009Z" fill="black"/>
<path d="M296.092 64.6998V66.6994H273.193V64.6998C279.893 64.6998 281.093 63.0003 281.093 52.9993V37.0008C281.093 26.9998 279.893 25.4007 273.193 25.4007V23.4H293.892C304.191 23.4 309.892 28.7006 309.892 35.8009C309.892 42.7006 304.191 48.1003 293.892 48.1003H288.192V52.9993C288.192 63.0003 289.392 64.6998 296.092 64.6998V64.6998ZM293.892 26.9998H288.192V44.4H293.892C299.492 44.4 302.092 40.5003 302.092 35.8009C302.092 31.0011 299.492 26.9998 293.892 26.9998Z" fill="black"/>
<path d="M378.589 57.3006L378.089 59.1005C377.189 62.4003 376.089 63.6002 368.989 63.6002H367.589C362.39 63.6002 361.49 62.4003 361.49 55.2999V50.7009C369.289 50.7009 369.889 51.4001 369.889 56.6002H371.789V41.7003H369.889C369.889 46.9004 369.289 47.5995 361.49 47.5995V36.4009H366.989C374.089 36.4009 375.189 37.6009 376.089 40.9006L376.589 42.7997H378.188L377.489 33.4011H348.089V35.3002C353.689 35.3002 354.589 36.5001 354.589 43.6005V56.4007C354.589 62.8952 353.824 64.5314 349.409 64.7645C345.213 64.1241 342.332 61.835 338.391 57.5001L333.791 52.5008C339.991 51.4001 343.291 47.5004 343.291 43.0998C343.291 37.6009 338.592 33.4011 329.792 33.4011H312.192V35.3002C317.791 35.3002 318.691 36.5001 318.691 43.6005V56.4007C318.691 63.4999 317.791 64.8001 312.192 64.8001V66.6994H332.091V64.8001C326.492 64.8001 325.592 63.4999 325.592 56.4007V52.8008H327.291L338.391 66.6994H379.489L380.089 57.3006H378.589V57.3006ZM325.592 49.6994V36.4009H329.691C334.191 36.4009 336.192 39.5 336.192 43.0998C336.192 46.6003 334.191 49.6994 329.691 49.6994H325.592Z" fill="black"/>
<path d="M398.888 67.9997C394.888 67.9997 391.388 65.8997 389.888 64.5994C389.388 65.1001 388.488 66.6001 388.289 67.9997H386.388V54.2004H388.388C389.189 60.8 393.788 64.6998 399.688 64.6998C402.888 64.6998 405.488 62.8999 405.488 59.9001C405.488 57.3006 403.187 55.2999 399.088 53.4008L393.388 50.7009C389.388 48.7995 386.388 45.4996 386.388 41.1003C386.388 36.3005 390.888 32.2011 397.089 32.2011C400.388 32.2011 403.187 33.4011 404.888 34.8005C405.388 34.4003 405.887 33.2995 406.189 32.0996H408.088V43.9005H405.988C405.287 39.2 402.688 35.3002 397.389 35.3002C394.588 35.3002 391.988 36.9005 391.988 39.4007C391.988 42.0002 394.088 43.3998 398.888 45.6001L404.387 48.2999C409.188 50.5994 411.087 54.3007 411.087 57.3006C411.087 63.6002 405.587 67.9997 398.888 67.9997V67.9997Z" fill="black"/>
<path d="M429.125 67.9997C425.125 67.9997 421.624 65.8997 420.125 64.5994C419.625 65.1001 418.725 66.6001 418.525 67.9997H416.625V54.2004H418.625C419.425 60.8 424.024 64.6998 429.925 64.6998C433.124 64.6998 435.725 62.8999 435.725 59.9001C435.725 57.3006 433.424 55.2999 429.325 53.4008L423.625 50.7009C419.625 48.7995 416.625 45.4996 416.625 41.1003C416.625 36.3005 421.125 32.2011 427.325 32.2011C430.625 32.2011 433.424 33.4011 435.125 34.8005C435.624 34.4003 436.124 33.2995 436.424 32.0996H438.324V43.9005H436.224C435.524 39.2 432.925 35.3002 427.625 35.3002C424.825 35.3002 422.224 36.9005 422.224 39.4007C422.224 42.0002 424.324 43.3998 429.125 45.6001L434.624 48.2999C439.425 50.5994 441.324 54.3007 441.324 57.3006C441.324 63.6002 435.824 67.9997 429.125 67.9997V67.9997Z" fill="black"/>
<path d="M45 2.7C50.7117 2.7 56.251 3.81804 61.4643 6.02303C63.9701 7.08292 66.3872 8.39491 68.6485 9.92256C70.8889 11.4362 72.9958 13.1745 74.9106 15.0894C76.8255 17.0042 78.5638 19.1111 80.0774 21.3515C81.6051 23.6128 82.9171 26.0299 83.977 28.5357C86.182 33.749 87.3 39.2884 87.3 45C87.3 50.7116 86.182 56.251 83.977 61.4642C82.9171 63.9701 81.6051 66.3872 80.0774 68.6484C78.5638 70.8889 76.8255 72.9958 74.9106 74.9106C72.9958 76.8254 70.8889 78.5638 68.6485 80.0774C66.3872 81.605 63.9701 82.9171 61.4643 83.977C56.251 86.182 50.7117 87.3 45 87.3C39.2883 87.3 33.749 86.182 28.5358 83.977C26.0299 82.9171 23.6128 81.605 21.3516 80.0774C19.1111 78.5638 17.0042 76.8254 15.0894 74.9106C13.1745 72.9958 11.4362 70.8889 9.92256 68.6484C8.39495 66.3872 7.08292 63.9701 6.02303 61.4642C3.81804 56.251 2.7 50.7116 2.7 45C2.7 39.2884 3.81804 33.749 6.02303 28.5357C7.08292 26.0299 8.39495 23.6128 9.92256 21.3515C11.4362 19.1111 13.1745 17.0042 15.0894 15.0894C17.0042 13.1745 19.1111 11.4362 21.3516 9.92256C23.6128 8.39491 26.0299 7.08292 28.5358 6.02303C33.749 3.81804 39.2884 2.7 45 2.7M45 0C20.1472 0 0 20.1472 0 45C0 69.8528 20.1472 90 45 90C69.8528 90 90 69.8528 90 45C90 20.1472 69.8528 0 45 0V0Z" fill="black"/>
<path d="M7.50002 44.9986C7.50002 59.8412 16.1252 72.6692 28.6357 78.747L10.7471 29.7375C8.66641 34.4008 7.50002 39.5619 7.50002 44.9986V44.9986ZM70.3156 43.1073C70.3156 38.4714 68.6504 35.2627 67.2242 32.7656C65.3232 29.6753 63.5406 27.0607 63.5406 23.9704C63.5406 20.5239 66.1542 17.3151 69.8379 17.3151C70.0043 17.3151 70.1618 17.3352 70.3234 17.3455C63.6516 11.2324 54.7626 7.49999 45.0001 7.49999C31.8984 7.49999 20.3732 14.2223 13.6677 24.4016C14.5482 24.4295 15.3778 24.4471 16.0812 24.4471C20.0027 24.4471 26.0758 23.9704 26.0758 23.9704C28.0963 23.852 28.3351 26.8219 26.3156 27.0607C26.3156 27.0607 24.2834 27.2987 22.0241 27.417L35.6793 68.0363L43.887 43.4245L38.0449 27.417C36.0245 27.2987 34.1117 27.0607 34.1117 27.0607C32.0902 26.9413 32.3271 23.852 34.3495 23.9704C34.3495 23.9704 40.5411 24.4471 44.2257 24.4471C48.1472 24.4471 54.2214 23.9704 54.2214 23.9704C56.2428 23.852 56.4807 26.8219 54.4602 27.0607C54.4602 27.0607 52.4261 27.2987 50.1686 27.417L63.7207 67.727L67.5893 55.4687C69.3081 50.1116 70.3156 46.3161 70.3156 43.1073V43.1073ZM45.6588 48.2787L34.4058 80.972C37.7664 81.9607 41.3193 82.5 45.0001 82.5C49.3669 82.5 53.5562 81.7463 57.4537 80.3739C57.3534 80.2134 57.2608 80.0431 57.1846 79.857L45.6588 48.2787L45.6588 48.2787ZM77.9075 27.0089C78.0685 28.2031 78.1596 29.4844 78.1596 30.8647C78.1596 34.6685 77.4469 38.9462 75.3071 44.2957L63.8538 77.4109C75.0025 70.9112 82.5 58.8329 82.5 44.9986C82.5 38.4788 80.8339 32.3496 77.9075 27.0089V27.0089Z" fill="black"/>
</svg>
