<svg width="440" height="90" viewBox="0 0 440 90" fill="none" xmlns="http://www.w3.org/2000/svg">
<path fill-rule="evenodd" clip-rule="evenodd" d="M135.004 0H13.8173C6.14801 0 -0.0604233 6.36675 0.000443759 14.0934V61.0715C0.000443759 68.8598 6.20889 75.1649 13.8781 75.1649H71.2756L97.5096 90L91.5446 75.1649H135.004C142.673 75.1649 148.881 68.8598 148.881 61.0715V14.0934C148.881 6.30493 142.673 0 135.004 0ZM11.2611 10.8791C9.55684 11.0027 8.2786 11.6209 7.42648 12.7953C6.57435 13.908 6.27003 15.3297 6.45261 16.9368C10.0438 40.117 13.3914 55.7556 16.4957 63.8531C17.713 66.82 19.113 68.242 20.7564 68.1184C23.3128 67.9327 26.3561 64.3477 29.9473 57.3628C31.8342 53.4065 34.7558 47.4727 38.7122 39.5604C41.9988 51.243 46.5029 60.0208 52.1638 65.8929C53.7465 67.5618 55.3898 68.3036 56.9721 68.18C58.3724 68.0564 59.4677 67.3146 60.1981 65.9546C60.8069 64.7802 61.0503 63.4202 60.9286 61.875C60.5634 56.2501 61.1114 48.3998 62.633 38.3242C64.2153 27.9396 66.1632 20.4602 68.537 16.0096C69.024 15.0824 69.2064 14.1552 69.1457 13.0426C69.024 11.6208 68.4152 10.4464 67.2589 9.51923C66.1025 8.59204 64.824 8.15935 63.4241 8.28295C61.6591 8.40659 60.3199 9.27196 59.407 11.0027C55.6333 17.9876 52.955 29.2995 51.3727 45C49.0596 39.066 47.1117 32.0811 45.5901 23.8599C44.9207 20.2129 43.2773 18.4821 40.599 18.6676C38.773 18.7912 37.2514 20.0275 36.034 22.3764L22.7041 48.1525C20.5129 39.1896 18.4434 28.2486 16.5565 15.3297C16.1305 12.1154 14.3653 10.6318 11.2611 10.8791ZM128.552 15.3299C132.874 16.2571 136.1 18.606 138.291 22.5002C140.239 25.8381 141.212 29.856 141.212 34.6774C141.212 41.044 139.63 46.8545 136.464 52.1705C132.813 58.3519 128.065 61.4424 122.161 61.4424C121.126 61.4424 120.031 61.3188 118.874 61.0715C114.553 60.1444 111.327 57.7957 109.135 53.9014C107.188 50.5016 106.214 46.422 106.214 41.6622C106.214 35.2956 107.796 29.4851 110.961 24.231C114.674 18.0497 119.422 14.959 125.265 14.959C126.3 14.959 127.396 15.0826 128.552 15.3299ZM125.996 48.7707C128.248 46.7309 129.769 43.702 130.622 39.6224C130.865 38.2008 131.047 36.6554 131.047 35.0483C131.047 33.2557 130.682 31.3395 129.952 29.4233C129.039 27.0126 127.821 25.7145 126.361 25.4054C124.17 24.9727 122.039 26.209 120.031 29.2379C118.387 31.5867 117.352 34.0593 116.805 36.5936C116.5 38.0153 116.378 39.5608 116.378 41.1061C116.378 42.8986 116.744 44.8147 117.474 46.7309C118.387 49.1416 119.604 50.4396 121.065 50.7489C122.587 51.0578 124.23 50.378 125.996 48.7707ZM100.127 22.5002C97.9355 18.606 94.6489 16.2571 90.3882 15.3299C89.2315 15.0826 88.1362 14.959 87.1011 14.959C81.2582 14.959 76.5106 18.0497 72.7976 24.231C69.6323 29.4851 68.05 35.2956 68.05 41.6622C68.05 46.422 69.024 50.5016 70.9715 53.9014C73.1629 57.7957 76.3889 60.1444 80.7102 61.0715C81.8666 61.3188 82.9622 61.4424 83.9973 61.4424C89.9012 61.4424 94.6489 58.3519 98.3008 52.1705C101.466 46.8545 103.048 41.044 103.048 34.6774C103.048 29.856 102.074 25.8381 100.127 22.5002ZM92.4575 39.6224C91.6057 43.702 90.0837 46.7309 87.8316 48.7707C86.0665 50.378 84.4232 51.0578 82.9016 50.7489C81.4406 50.4396 80.2232 49.1416 79.3103 46.7309C78.5799 44.8147 78.2146 42.8986 78.2146 41.1061C78.2146 39.5608 78.3364 38.0153 78.6409 36.5936C79.1886 34.0593 80.2232 31.5867 81.8666 29.2379C83.8755 26.209 86.0058 24.9727 88.1968 25.4054C89.6578 25.7145 90.8752 27.0126 91.7881 29.4233C92.5185 31.3395 92.8838 33.2557 92.8838 35.0483C92.8838 36.6554 92.762 38.2008 92.4575 39.6224Z" fill="black"/>
<path d="M164.281 21.9436C160.202 26.0233 158.194 31.2155 158.194 37.5205C158.194 44.2582 160.202 49.7594 164.22 53.901C168.237 58.0426 173.472 60.1441 179.984 60.1441C181.871 60.1441 184.002 59.8352 186.315 59.155V49.1412C184.184 49.7594 182.358 50.0687 180.776 50.0687C177.55 50.0687 174.993 48.956 173.045 46.7925C171.098 44.5671 170.124 41.6002 170.124 37.8296C170.124 34.3062 171.098 31.401 172.985 29.1757C174.932 26.8886 177.306 25.776 180.228 25.776C182.115 25.776 184.123 26.085 186.315 26.7032V16.6894C184.306 16.1331 182.054 15.8858 179.68 15.8858C173.472 15.824 168.359 17.8639 164.281 21.9436ZM206.523 15.824C200.923 15.824 196.54 17.7403 193.375 21.5108C190.21 25.2815 188.689 30.5974 188.689 37.3969C188.689 44.7527 190.271 50.3776 193.375 54.2719C196.479 58.1663 201.045 60.1441 207.01 60.1441C212.792 60.1441 217.235 58.1663 220.339 54.2719C223.443 50.3776 225.026 44.8764 225.026 37.8296C225.026 30.7828 223.443 25.3433 220.278 21.5108C217.052 17.7403 212.487 15.824 206.523 15.824ZM211.331 47.9669C210.235 49.6978 208.592 50.5633 206.523 50.5633C204.575 50.5633 203.114 49.6978 202.079 47.9669C201.045 46.236 200.558 42.7746 200.558 37.5205C200.558 29.423 202.566 25.4051 206.644 25.4051C210.905 25.4051 213.096 29.4848 213.096 37.706C213.035 42.7746 212.427 46.236 211.331 47.9669ZM255.094 16.9985L252.903 26.4559C252.355 28.8666 251.808 31.3392 251.321 33.8735L250.103 40.4259C248.947 33.8735 247.364 26.085 245.356 16.9985H231.235L225.939 59.0934H236.53L239.391 30.1029L246.634 59.0934H254.182L261.12 30.1647L264.103 59.0934H275.181L269.581 16.9985H255.094ZM305.797 16.9985L303.606 26.4559C303.058 28.8666 302.51 31.3392 302.023 33.8735L300.805 40.4259C299.649 33.8735 298.066 26.085 296.058 16.9985H281.937L276.642 59.0934H287.232L290.093 30.1029L297.336 59.0934H304.884L311.762 30.1647L314.744 59.0934H325.822L320.222 16.9985H305.797ZM340.247 42.4657H350.169V33.7499H340.247V26.0232H351.69V17.0603H329.048V59.155H351.751V50.1923H340.247V42.4657ZM383.28 35.7897C384.437 33.8735 385.045 31.8955 385.045 29.8557C385.045 25.8996 383.524 22.7471 380.481 20.46C377.437 18.1729 373.237 16.9985 368.003 16.9985H354.977V59.0934H366.177V39.9313H366.36L375.428 59.0934H387.237L378.289 40.1166C380.42 39.1277 382.124 37.7059 383.28 35.7897ZM366.116 35.1098V25.096C368.794 25.1578 370.681 25.5905 371.838 26.4559C372.994 27.3213 373.542 28.6812 373.542 30.6592C373.542 33.5644 371.046 35.048 366.116 35.1098ZM391.618 21.9436C387.541 26.0233 385.532 31.2155 385.532 37.5205C385.532 44.2582 387.541 49.7594 391.559 53.901C395.577 58.0426 400.809 60.1441 407.324 60.1441C409.21 60.1441 411.342 59.8352 413.652 59.155V49.1412C411.524 49.7594 409.696 50.0687 408.113 50.0687C404.889 50.0687 402.333 48.956 400.385 46.7925C398.436 44.5671 397.464 41.6002 397.464 37.8296C397.464 34.3062 398.436 31.401 400.323 29.1757C402.271 26.8886 404.644 25.776 407.565 25.776C409.451 25.776 411.462 26.085 413.652 26.7032V16.6894C411.645 16.1331 409.393 15.8858 407.02 15.8858C400.871 15.824 395.698 17.8639 391.618 21.9436ZM427.958 50.0687V42.4037H437.876V33.6881H427.958V25.9614H439.459V16.9985H416.818V59.0934H439.522V50.1303H427.958V50.0687Z" fill="black"/>
</svg>
