<svg width="997" height="250" viewBox="0 0 997 250" fill="none" xmlns="http://www.w3.org/2000/svg">
<path d="M136.518 47.3747C136.209 46.9199 135.789 46.5511 135.298 46.3027C134.807 46.0543 134.262 45.9344 133.712 45.9544C132.974 45.9699 132.244 46.1147 131.556 46.3822C124.598 49.0035 116.893 48.8198 110.068 45.87C103.242 42.9202 97.8294 37.4348 94.9704 30.5708V30.5708C94.9078 30.351 94.7969 30.1478 94.646 29.9762C94.495 29.8045 94.3078 29.6686 94.0978 29.5783C93.4077 29.3862 92.6914 29.3054 91.9759 29.3387H85.0284C84.4991 29.3 83.9713 29.4319 83.5225 29.7152C83.2108 29.9357 82.9581 30.2296 82.7867 30.5708L38.7919 143.681C35.301 152.807 32.027 160.844 28.9696 167.792C26.3172 173.939 23.2883 179.916 19.9003 185.691C17.7683 189.675 14.9468 193.25 11.5667 196.249C9.07483 198.502 5.85582 199.783 2.49739 199.859H1.5049C1.16026 199.864 0.821047 199.946 0.512424 200.099C0.363942 200.161 0.237285 200.265 0.148832 200.399C0.0603786 200.534 0.0141728 200.691 0.0161628 200.852C-0.0161182 201.055 0.000102907 201.262 0.0635017 201.458C0.1269 201.653 0.235667 201.831 0.380904 201.976C0.526142 202.121 0.703732 202.23 0.899099 202.293C1.09447 202.357 1.30205 202.373 1.5049 202.341H54.6889C55.4686 202.399 56.2482 202.226 56.9306 201.844C57.1538 201.72 57.3407 201.539 57.4727 201.32C57.6047 201.101 57.6774 200.851 57.6835 200.595C57.6765 200.423 57.6276 200.255 57.5412 200.106C57.4547 199.957 57.3332 199.831 57.1872 199.74C56.8246 199.478 56.3848 199.346 55.9381 199.363H55.3221C54.7755 199.407 54.2324 199.487 53.6964 199.603L50.274 199.979C49.5753 200.059 48.8726 200.099 48.1693 200.099C46.0747 200.232 43.9744 199.95 41.9893 199.268C40.0041 198.587 38.1731 197.52 36.6016 196.129C33.8636 193.477 32.5118 189.661 32.5118 184.698C32.4582 178.87 33.1658 173.06 34.6166 167.415C34.7535 166.845 34.9074 166.229 35.0786 165.567C39.542 149.19 47.8556 134.118 59.3262 121.606L109.687 66.4546C123.171 52.9533 130.444 47.5116 133.644 47.5116C140.197 47.5116 129.691 70.4417 120.929 93.714V97.9577L122.315 94.2616C124.027 89.8124 125.738 85.3804 127.449 81.1024C135.201 61.5435 139.085 51.1222 136.518 47.3747Z" fill="black"/>
<path d="M180.719 200.236C180.356 199.974 179.916 199.842 179.469 199.859H177.981C175.701 199.905 173.444 199.411 171.392 198.418C169.34 197.424 167.552 195.96 166.174 194.144C163.105 190.322 159.169 183.278 154.366 173.011C152.381 168.87 150.185 163.941 147.778 158.226C145.371 152.511 142.519 145.757 139.222 137.965L121.015 93.7653C114.427 111.339 108.831 129.119 112.322 137.486L112.613 138.205L113.623 140.703C116.6 147.822 119.127 153.994 121.203 159.219C123.28 164.443 124.991 168.955 126.337 172.754C130.159 183.204 131.984 190.374 131.813 194.264C131.642 198.165 128.75 200.099 123.12 200.099H117.884C116.891 200.099 116.532 200.476 116.771 201.228C116.905 201.601 117.165 201.915 117.505 202.118C117.845 202.321 118.245 202.4 118.636 202.341H179.795C179.996 202.357 180.198 202.331 180.389 202.267C180.581 202.202 180.757 202.099 180.907 201.964C181.026 201.852 181.121 201.717 181.185 201.567C181.25 201.417 181.283 201.255 181.283 201.092C181.269 200.913 181.21 200.741 181.111 200.591C181.012 200.441 180.877 200.319 180.719 200.236Z" fill="black"/>
<path d="M311.317 131.206C311.317 152.402 304.563 169.965 291.056 183.894C277.549 197.823 260.854 204.782 240.969 204.771C231.513 204.767 222.225 202.277 214.035 197.549C211.101 195.829 207.695 195.087 204.31 195.431C200.926 195.776 197.739 197.189 195.212 199.466V199.466C192.714 201.708 190.985 202.888 189.976 202.888C189.803 202.878 189.638 202.813 189.506 202.702C189.373 202.591 189.28 202.44 189.24 202.272C189.04 201.672 188.953 201.039 188.983 200.407V34.5066C189.033 31.1854 188.868 27.8643 188.487 24.5646C188.304 22.5913 187.801 20.661 186.998 18.8492C186.76 18.1154 186.337 17.4549 185.771 16.9307C185.205 16.4064 184.514 16.036 183.764 15.8546C182.27 15.5238 178.625 15.8546 172.83 16.8471C171.837 17.0182 171.341 16.7273 171.341 15.9915C171.341 15.2556 171.837 14.7765 172.83 14.6225C178.707 13.5148 184.446 11.7645 189.942 9.40334C196.504 6.7118 202.904 3.63782 209.107 0.197143C209.609 -0.133688 210.482 -0.0481391 211.725 0.453812C212.969 0.955763 213.585 1.452 213.573 1.94254V101.859C219.379 93.8567 226.844 87.2024 235.459 82.3517C243.513 77.8519 252.587 75.4951 261.812 75.5069C268.536 75.3328 275.214 76.6584 281.362 79.3875C287.51 82.1165 292.972 86.1804 297.353 91.2841C306.662 101.825 311.317 115.133 311.317 131.206ZM213.625 104.597V177.426C218.439 184.141 224.42 189.937 231.284 194.538C236.799 198.25 243.272 200.283 249.919 200.39C255.345 200.583 260.721 199.296 265.472 196.668C270.222 194.039 274.168 190.168 276.887 185.468C283.116 175.532 286.225 161.198 286.213 142.466C286.213 125.559 282.648 111.87 275.518 101.397C268.388 90.9248 258.8 85.6144 246.753 85.4661C240.438 85.5316 234.259 87.3055 228.871 90.5996C222.864 94.1457 217.67 98.9146 213.625 104.597V104.597Z" fill="black"/>
<path d="M417.702 143.51C412.078 137.954 400.812 132.358 383.906 126.723C367.992 121.247 357.724 116.444 353.104 112.315C350.916 110.494 349.157 108.212 347.953 105.633C346.749 103.053 346.129 100.24 346.14 97.3929C346.14 91.4208 348.946 86.6295 354.593 82.9675C360.24 79.3055 367.684 77.5088 376.958 77.5088C383.416 77.3677 389.83 78.5923 395.781 81.1023C401.095 83.4624 405.685 87.1953 409.077 91.917C410.482 93.9879 411.707 96.1748 412.739 98.4538C413.074 99.1957 413.596 99.838 414.253 100.318C414.911 100.798 415.681 101.099 416.49 101.192C417.299 101.285 418.118 101.167 418.867 100.849C419.616 100.531 420.27 100.024 420.765 99.3779V99.3779C420.919 93.2518 421.056 89.0251 421.141 86.6979C421.227 84.3707 421.261 82.6424 421.261 81.4788C421.279 81.2774 421.255 81.0744 421.19 80.8829C421.125 80.6914 421.021 80.5155 420.885 80.3664C420.408 79.9777 419.862 79.6817 419.276 79.4938C408.838 77.6799 401.086 76.5391 396.021 76.0714C390.973 75.6607 385.121 75.4553 378.498 75.4553C365.083 75.4553 353.606 79.1002 344.069 86.3899C334.532 93.6796 329.769 103.04 329.781 114.471C329.732 118.053 330.451 121.605 331.888 124.887C333.326 128.169 335.448 131.105 338.114 133.499C343.658 138.724 354.718 144.148 371.294 149.773C387.357 155.248 397.715 160.011 402.37 164.061C404.548 165.833 406.303 168.069 407.505 170.606C408.707 173.144 409.326 175.918 409.317 178.726C409.317 186.358 406.745 192.284 401.6 196.505C396.455 200.726 389.079 202.837 379.474 202.837C372.903 202.966 366.374 201.749 360.291 199.26C354.831 196.993 349.978 193.476 346.123 188.993C342.079 184.254 339.108 178.697 337.413 172.703C336.853 172.327 336.204 172.106 335.531 172.062C334.858 172.019 334.186 172.155 333.582 172.455C332.979 172.756 332.466 173.211 332.096 173.775C331.726 174.338 331.511 174.99 331.475 175.663C331.224 179.701 330.887 183.894 330.465 188.24C330.294 189.951 330.208 191.064 330.208 191.663V193.169C330.153 194.013 330.281 194.86 330.585 195.65C330.726 195.906 330.922 196.128 331.158 196.299C331.395 196.471 331.667 196.588 331.954 196.642C332.775 196.813 335.633 197.669 340.51 199.243C345.029 200.727 349.635 201.933 354.302 202.854C358.003 203.549 361.739 204.046 365.493 204.343C369.463 204.685 373.604 204.839 377.917 204.839C391.846 204.839 403.362 200.949 412.466 193.169C416.823 189.635 420.32 185.157 422.692 180.072C425.064 174.988 426.248 169.431 426.155 163.822C426.227 160.035 425.514 156.275 424.059 152.779C422.603 149.283 420.439 146.127 417.702 143.51V143.51Z" fill="black"/>
<path d="M533.054 176.433C525.753 186.05 518.338 193.22 510.808 197.943C503.821 202.502 495.673 204.961 487.331 205.027C474.223 205.027 464.589 201.091 458.36 193.22C452.131 185.348 449.051 173.199 449.051 156.806V110.073C449.099 106.644 448.933 103.215 448.555 99.8057C448.315 97.7878 447.897 95.795 447.306 93.8508C446.95 93.0775 446.433 92.3891 445.789 91.8314C445.146 91.2737 444.391 90.8596 443.575 90.6166C441.921 90.1147 438.356 90.3599 432.88 91.3524C431.888 91.5235 431.392 91.2326 431.392 90.4797C431.392 89.7439 431.888 89.2819 432.88 89.1279C439.525 87.9452 446.057 86.1991 452.405 83.9087C458.352 81.89 464.126 79.395 469.671 76.4479C470.167 76.1057 471.04 76.1912 472.289 76.6875C473.538 77.1837 474.154 77.6799 474.154 78.1762V154.496C474.154 167.044 476.39 176.616 480.862 183.209C485.334 189.803 491.882 193.077 500.507 193.032C506.513 193.123 512.429 191.573 517.619 188.548C522.661 185.571 527.84 180.517 533.156 173.387V110.073C533.156 105.932 533.02 102.578 532.78 99.9939C532.657 97.9855 532.194 96.0124 531.411 94.1588C531.079 93.3493 530.572 92.623 529.928 92.0315C529.283 91.4399 528.516 90.9977 527.681 90.7364C526.015 90.2344 522.536 90.4797 517.242 91.4722C516.25 91.6433 515.754 91.3524 515.754 90.5995C515.754 89.8637 516.25 89.4016 517.242 89.2476C523.718 88.0594 530.079 86.3132 536.254 84.0285C542.181 81.9447 547.956 79.4518 553.537 76.5677C554.033 76.2254 554.906 76.311 556.138 76.8073C557.37 77.3035 558.003 77.7997 558.003 78.296V172.754C558.003 185.303 558.665 193.009 559.988 195.872C561.311 198.736 564.876 200.145 570.683 200.099C571.504 200.099 571.932 200.475 571.932 201.228C571.932 201.981 571.504 202.341 570.683 202.341C564.705 202.341 558.864 202.506 553.16 202.837C547.456 203.168 540.703 203.829 532.9 204.822C532.659 204.916 532.4 204.954 532.142 204.933C531.884 204.912 531.634 204.833 531.411 204.702C531.069 204.445 530.915 203.744 530.915 202.597C530.928 202.303 530.968 202.011 531.035 201.725C531.035 201.314 531.24 200.51 531.411 199.363C532.061 194.378 532.518 190.151 532.78 186.683C532.917 183.141 533.054 179.753 533.054 176.433Z" fill="black"/>
<path d="M633.962 202.289C634.955 202.289 635.451 201.913 635.451 201.177C635.451 200.441 634.955 200.048 633.962 200.048C631.807 200.048 629.673 199.623 627.682 198.798C625.691 197.974 623.882 196.765 622.358 195.241C620.835 193.717 619.626 191.908 618.801 189.917C617.976 187.926 617.552 185.792 617.552 183.637V128.212C617.442 122.398 617.733 116.583 618.425 110.809C618.715 107.769 619.788 104.857 621.539 102.355C623.037 100.767 624.993 99.6841 627.135 99.2582C630.691 98.5718 634.312 98.2791 637.932 98.3855H648.627C652.278 98.3855 655.632 96.315 658.689 92.1739C661.769 88.0328 663.292 84.3024 663.292 80.9826C663.255 80.0444 662.923 79.1418 662.342 78.4041C661.761 77.6665 660.962 77.1315 660.058 76.8758C657.19 75.8544 654.151 75.3954 651.109 75.5239C647.597 75.4726 644.11 76.1061 640.841 77.3891C637.888 78.5717 635.192 80.315 632.901 82.5227C632.64 82.7761 632.366 83.016 632.08 83.2414C628.333 86.2893 625.188 90.0091 622.805 94.2102C620.182 98.986 618.339 104.151 617.347 109.508V108.259C617.308 102.073 616.215 95.9386 614.112 90.1204C611.956 83.9829 609.469 79.5908 606.652 76.9442C606.436 76.701 606.189 76.488 605.916 76.3111C605.745 76.3111 605.488 76.3111 605.163 76.6875C601.74 79.5185 598.042 82.0007 594.126 84.097C590.085 86.4847 585.888 88.5999 581.565 90.4284C581.24 90.5995 581.069 90.8049 581.069 91.0616C581.122 91.3986 581.299 91.7038 581.565 91.9172C584.928 94.8462 587.855 98.2401 590.258 101.996C591.956 104.63 592.903 107.677 592.996 110.809V172.703C592.996 177.186 592.916 180.837 592.757 183.654C592.586 186.461 592.329 188.788 592.004 190.859C591.508 194.281 590.515 196.745 589.026 198.063C587.538 199.38 584.389 200.048 579.581 200.048C578.588 200.048 578.092 200.424 578.092 201.177C578.092 201.913 578.588 202.289 579.581 202.289" fill="black"/>
<path d="M759.737 177.682C753.884 185.906 746.288 192.736 737.491 197.686C729.34 202.308 720.133 204.748 710.762 204.77C704.038 204.944 697.36 203.619 691.212 200.89C685.064 198.161 679.602 194.097 675.221 188.993C665.946 178.475 661.309 165.173 661.309 149.088C661.309 128.211 668.188 110.729 681.946 96.6399C688.348 89.8439 696.096 84.4564 704.696 80.8208C713.296 77.1852 722.56 75.3811 731.895 75.5237C736.781 75.5113 741.642 76.2206 746.321 77.6285C751.071 79.0978 755.588 81.2354 759.737 83.977V35.2421C759.775 31.8812 759.609 28.5211 759.24 25.1803C759.036 23.0892 758.535 21.0379 757.752 19.0884C757.433 18.1937 756.904 17.3883 756.211 16.7393C755.517 16.0904 754.678 15.6168 753.764 15.358C751.951 14.8675 748.477 15.1184 743.343 16.1109C742.334 16.2821 741.838 15.9911 741.838 15.2382C741.838 14.4853 742.334 14.0404 743.343 13.8693C749.454 12.6362 755.439 10.8491 761.225 8.53035C767.45 6.14602 773.515 3.3624 779.381 0.196832C779.877 -0.128295 780.819 -0.0427458 782.239 0.453501C783.659 0.949748 784.344 1.44599 784.344 1.94223V172.703C784.344 185.97 785.051 193.842 786.466 196.317C787.869 198.815 791.394 200.048 797.024 200.048C798.016 200.048 798.512 200.424 798.512 201.177C798.512 201.913 798.016 202.289 797.024 202.289C788.913 202.289 781.811 202.494 775.771 202.905C770.805 203.181 765.864 203.804 760.986 204.77C760.235 204.97 759.436 204.885 758.744 204.531C758.467 204.286 758.255 203.977 758.127 203.631C757.999 203.284 757.958 202.912 758.008 202.546V201.793C758.04 201.126 758.12 200.463 758.248 199.808C758.75 195.165 759.121 191.144 759.36 187.744C759.6 184.344 759.725 180.99 759.737 177.682ZM723.203 79.9899C710.939 79.9899 701.619 84.7984 695.242 94.4153C688.865 104.032 685.67 118.201 685.659 136.921C685.659 153.817 689.389 167.694 696.85 178.555C704.311 189.415 714.088 194.84 726.18 194.828C732.608 194.787 738.894 192.937 744.319 189.489C750.494 185.566 755.748 180.353 759.72 174.208V103.433C754.976 96.7041 749.037 90.9038 742.197 86.3213C736.624 82.3933 730.018 80.1914 723.203 79.9899V79.9899Z" fill="black"/>
<path d="M860.148 200.048C853.52 200.048 849.528 198.559 848.17 195.581C846.812 192.604 846.105 184.977 846.048 172.703V1.94223C846.048 1.44599 845.432 0.949748 844.183 0.453501C842.934 -0.0427458 842.078 -0.128295 841.582 0.196832C836.005 3.09123 830.23 5.58446 824.299 7.65762C818.127 9.95027 811.765 11.6967 805.287 12.8768C804.124 13.0479 803.576 13.4928 803.576 14.2457C803.576 14.9987 804.158 15.2725 805.287 15.1185C810.267 14.28 813.655 14.126 815.555 14.6222C816.467 14.8808 817.303 15.3545 817.994 16.0037C818.685 16.6528 819.21 17.4584 819.524 18.3526C820.293 20.2942 820.755 22.3437 820.893 24.4273C821.144 27.0055 821.27 30.3652 821.27 34.5063V172.703C821.27 185.137 820.648 192.803 819.405 195.701C818.156 198.61 814.887 200.048 809.582 200.048C808.59 200.048 808.094 200.424 808.094 201.177C808.094 201.913 808.59 202.289 809.582 202.289H860.285C861.278 202.289 861.791 201.913 861.791 201.177C861.791 200.441 861.072 200.048 860.148 200.048Z" fill="black"/>
<path d="M994.888 77.9196H949.165C948.156 77.9196 947.659 78.2789 947.659 79.0318C947.659 79.7847 948.156 80.1441 949.165 80.1441C957.596 80.1441 962.855 83.2927 964.942 89.5899C967.03 95.8871 965.581 104.671 960.596 115.942C957.002 124.002 931.232 146.641 907.018 164.164C889.633 176.741 873.051 186.7 866.087 186.7C858.044 186.7 862.852 173.404 894.099 135.57L894.51 132.558L892.798 134.543C861.107 172.908 859.738 182.183 861.449 185.879C861.867 186.708 862.529 187.389 863.346 187.829C864.163 188.27 865.096 188.449 866.018 188.343C869.013 188.343 873.376 186.752 878.287 184.305C882.271 182.312 886.615 181.144 891.06 180.871C895.506 180.598 899.96 181.224 904.158 182.713C908.355 184.202 912.209 186.523 915.488 189.537C918.767 192.551 921.404 196.196 923.241 200.253V200.253L920.503 206.482C916.362 215.608 912.22 222.071 908.079 225.87C903.627 229.787 897.834 231.834 891.909 231.585C889.98 231.567 888.061 231.314 886.193 230.832C883.366 230.012 880.622 228.929 877.997 227.598C875.57 226.459 873.079 225.465 870.536 224.62C869.006 224.147 867.415 223.899 865.813 223.885C862.493 223.885 858.968 225.904 855.255 229.959C851.541 234.015 849.659 237.386 849.659 240.038C849.659 242.691 851.764 245.001 855.991 246.986C860.971 249.134 866.364 250.157 871.785 249.98C882.362 250.181 892.651 246.532 900.738 239.713C908.952 232.868 916.367 221.974 922.984 207.029L962.752 117.534C968.559 104.437 974.029 94.9118 979.163 88.9568C984.296 83.0018 989.515 80.0985 994.82 80.2468C995.658 80.2468 996.069 79.8703 996.069 79.1345C996.069 78.3987 995.727 77.9196 994.888 77.9196Z" fill="black"/>
<path d="M912.118 77.9196H854.45C853.629 77.9196 853.201 78.2789 853.201 79.0318C853.201 79.7847 853.629 80.1441 854.45 80.1441C860.919 79.9958 865.807 81.8211 869.115 85.6199C872.424 89.4188 877.312 98.4482 883.78 112.708L894.047 135.57C898.941 129.666 904.451 123.164 910.68 116.011L905.855 105.247C903.785 100.937 902.001 96.4959 900.516 91.9514C899.683 89.772 899.384 87.4251 899.643 85.1066C899.773 84.2484 900.128 83.4399 900.672 82.7636C901.216 82.0872 901.93 81.5672 902.74 81.2564C905.756 80.3255 908.915 79.943 912.066 80.127C913.059 80.127 913.555 79.7506 913.555 79.0147C913.555 78.2789 913.11 77.9196 912.118 77.9196Z" fill="black"/>
</svg>
