<svg width="540" height="250" viewBox="0 0 540 250" fill="none" xmlns="http://www.w3.org/2000/svg">
<path d="M116.452 0C116.452 0 92.3363 45.4106 64.2628 104.269C60.7708 111.596 57.5663 119.128 54.6768 126.742C48.4948 129.374 42.4888 132.403 36.696 135.807C45.4741 112.883 55.3341 87.7948 60.4147 75.4835C70.0966 52.025 55.3067 49.5463 55.3067 49.5463C55.3067 49.5463 39.1747 73.3472 23.6178 109.473C8.06101 145.599 0.0498047 196.405 0.0498047 196.405C2.5148 196.501 15.9627 194.46 19.8656 181.711C21.4268 176.521 26.836 161.895 33.3409 144.736C39.1473 142.778 45.0496 141.176 49.9111 139.957C30.9718 195.2 25.5762 249.745 25.5762 249.745C29.3832 249.882 46.0219 253.853 50.2261 224.835C60.8803 151.282 101.429 67.2532 112.289 46.9033C135.624 3.09493 116.452 0 116.452 0Z" fill="black"/>
<path d="M207.411 84.919C203.206 85.0011 194.305 97.4493 190.553 102.982C191.65 99.9088 192.591 96.7825 193.374 93.6149C195.62 83.125 188.375 84.0288 185.157 83.8645C181.391 83.4536 173.38 94.2037 169.107 100.298C169.614 98.6544 169.984 97.3261 170.176 96.3812C172.394 85.905 165.177 86.7951 161.959 86.6581C159.198 90.2397 156.794 94.0834 154.783 98.134C156.029 95.1076 153.414 100.421 153.414 100.421C153.414 100.421 154.687 98.6955 151.209 103.995C147.73 109.295 132.174 134.575 127.928 141.573C123.683 148.57 118.986 155.787 117.822 154.979C116.658 154.171 123.984 130.48 134.146 114.841C144.307 99.2022 142.075 99.0926 141.445 96.5866C140.815 94.0805 137.569 89.4518 134.899 88.3699C132.228 87.2881 130.366 89.89 121.204 106.323C120.492 107.597 119.835 108.898 119.082 110.226C118.82 108.86 118.477 107.511 118.055 106.186C118.739 102.996 112.07 94.8885 109.153 93.6012C106.661 92.5193 96.8284 102.708 89.6389 113.28C82.4493 123.852 72.3839 142.709 73.9725 151.213C75.1913 157.746 78.9436 163.073 82.0111 164.579C82.1773 164.722 82.3823 164.813 82.5999 164.839V164.839C83.1954 165.066 83.8532 165.066 84.4487 164.839L84.5719 164.771C88.379 164.059 95.0071 160.046 105.182 147.187C105.055 148.096 105.055 149.018 105.182 149.926C106.401 155.678 112.632 165.647 116.261 162.333C119.561 159.334 126.107 156.185 144.882 120.209C142.979 124.386 141.335 128.248 140.281 131.316C135.392 145.393 131.092 157.842 131.982 160.361C132.872 162.881 137.912 171.057 141.486 168.989C144.293 167.359 159.083 129.795 166.341 108.733C170.048 103.352 174.482 98.5083 179.515 94.3407C174.161 104.529 166.492 119.703 163.465 128.453C158.59 142.531 154.276 154.979 155.167 157.499C156.057 160.019 161.11 168.195 164.67 166.127C167.231 164.648 179.734 133.438 187.376 111.979C191.141 106.129 195.715 100.841 200.961 96.2716C195.716 105.858 188.636 119.1 185.897 126.933C181.063 140.203 176.79 151.939 177.68 154.322C178.972 157.238 180.939 159.806 183.418 161.813C185.719 164.073 187.773 165.031 193.292 159.69C200.824 152.405 209.725 143.394 211.916 138.053C211.916 138.053 196.756 152.857 193.196 151.638C201.234 134.232 214.094 101.366 215.723 94.0394C217.859 84.3027 210.629 85.0696 207.411 84.919ZM106.456 140.751C101.416 145.941 91.4739 155.719 87.5573 156.089C87.9134 150.296 99.3619 127.604 116.028 108.733L117.534 113.157C113.012 122 109.303 131.236 106.456 140.751V140.751Z" fill="black"/>
<path d="M500.895 125.797C500.142 125.797 499.375 125.797 498.608 125.797C497.074 115.978 495.951 103.886 498.375 97.3671C502.059 87.4113 510.7 72.3063 503.935 68.6773L497.156 65.1305C493.473 68.7321 479.052 84.6313 479.244 104.529C472.397 112.445 439.9 149.283 432.259 145.968C432.409 142.559 434.272 137.752 436.901 132.452C437.986 132.212 439.026 131.8 439.982 131.233C445.104 128.33 451.267 125.975 454.266 121.88C461.373 112.157 464.276 90.1912 462.482 88.0549C460.688 85.9186 454.375 83.7549 454.375 83.7549C451.883 82.6182 441.968 92.7384 434.696 103.242C429.219 111.212 421.974 123.907 419.468 133.37C415.949 137.875 406.376 149.488 399.926 150.734C395.339 151.597 399.926 132.836 407.773 112.39C449.719 81.1529 457.84 35.8518 459.401 18.3778C460.634 14.5708 460.935 11.7771 459.935 10.4761C457.592 7.32061 454.387 4.90951 450.705 3.53308C450.705 3.53308 411.539 60.3922 401.487 80.3313C394.339 94.5871 386.424 115.937 384.219 131.206C380.111 134.725 363.444 148.844 358.199 148.516C358.966 136.191 380.234 105.775 380.234 105.775C377.933 125.906 374.551 124.948 374.427 127.07C374.304 129.193 375.331 128.563 379.193 124.633C387.642 116.046 389.217 92.9575 387.41 90.8212C385.602 88.6848 379.303 86.5074 379.303 86.5074C376.81 85.3982 366.895 95.5047 359.624 106.008C354.08 114.462 349.604 123.569 346.299 133.123L341.15 136.547C347.6 117.375 352.516 101.968 353.201 98.5311C355.324 88.0138 348.093 88.945 344.875 88.8766C344.875 88.8766 340.493 97.0932 335.59 107.008C329.373 116.594 318.445 133.616 314.911 139.19C310.406 146.229 305.544 153.487 304.298 152.692C303.052 151.898 310.516 128.125 321.142 112.39C331.769 96.655 329.359 96.5728 328.688 94.0804C328.017 91.5881 324.443 86.9868 321.567 85.8638C318.691 84.7409 316.747 87.4249 307.147 103.927C300.094 116.087 293.795 130.959 291.508 140.244C287.906 147.009 281.347 157.253 277.225 163.525C269.769 174.708 259.206 183.466 246.837 188.722C244.522 189.695 243.208 189.024 242.55 186.066C241.893 183.108 236.607 107.816 314.87 33.1815C314.87 33.1815 310.009 54.3804 306.955 61.9397C299.67 79.7424 293.069 85.7132 293.069 87.6851C293.069 89.6571 291.426 91.2594 294.069 92.7795C297.574 94.7925 308.927 78.7701 311.871 71.8407C314.816 64.9114 321.772 54.6543 324.087 35.5232C326.401 16.3921 321.444 13.3794 318.143 11.0787C314.843 8.77805 302.614 16.3647 286.769 31.8805C270.925 47.3962 252.766 72.8267 237.566 110.144C222.365 147.461 221.064 179.492 231.293 191.05C241.523 202.609 260.682 187.75 266.899 181.136C271.925 175.863 283.688 164.538 290.577 147.16C290.577 147.352 290.576 147.543 290.672 147.721C292.042 153.487 298.889 163.374 302.696 160.046C305.599 157.527 310.913 154.884 323.785 133.315C323.785 133.466 323.676 133.63 323.635 133.78C322.526 137.163 320.28 143.996 317.568 152.473C289.714 172.248 267.036 193.146 271.363 216.837C275.28 238.145 300.122 245.595 305.435 234.147C307.736 232.777 326.209 180.643 339.493 141.258C341.547 139.806 343.396 138.519 344.971 137.368C344.394 139.477 344.24 141.678 344.519 143.846C345.573 149.803 348.723 154.801 351.558 156.773C351.722 156.958 351.936 157.091 352.174 157.157C352.564 157.44 353.016 157.626 353.492 157.699C353.968 157.773 354.455 157.733 354.913 157.581C355.227 157.445 355.526 157.275 355.803 157.075C361.007 155.993 369.963 151.022 383.616 135.972C383.235 139.249 383.567 142.571 384.589 145.708C389.258 157.102 393.75 159.663 398.516 157.28C402.008 155.527 412.84 148.433 418.729 141.532C420.03 148.283 424.042 153.719 427.11 154.815C436.696 160.156 461.866 128.138 479.463 108.254C479.678 110.391 480.067 112.507 480.627 114.581C481.858 119.021 482.801 123.536 483.448 128.097C477.036 129.576 470.788 131.69 464.797 134.41C459.743 136.807 451.102 147.05 454.279 155.445C457.456 163.84 473.109 174.877 486.406 166.209C499.704 157.54 502.716 146.516 500.977 138.478C500.566 136.519 499.978 133.698 499.389 130.412C504.729 129.48 509.659 128.7 513.083 128.207C523.751 126.646 536.514 122.291 539.842 114.841C539.773 114.704 516.096 125.92 500.895 125.797ZM455.293 102.941C454.909 111.294 452.704 115.69 449.5 119.689C447.72 121.921 443.707 124.167 440.489 125.714C447.103 114.143 455.293 102.941 455.293 102.941V102.941ZM428.37 71.1286C438.476 57.4342 449.678 39.7274 455.758 26.8136C450.869 56.4071 425.822 86.0692 412.758 99.8047C417.729 88.6575 423.207 78.0991 428.37 71.1286V71.1286ZM297.793 216.549C291.741 231.134 287.564 227.204 284.51 226.724C278.923 225.862 272.445 209.182 277.526 200.007C284.756 186.915 300.231 172.138 315.158 159.772C308.995 179.177 301.395 203.622 297.793 216.549ZM476.245 152.98C472.055 155.103 459.812 155.034 458.607 149.433C457.402 143.832 464.591 138.478 470.315 136.287C474.813 134.945 479.386 133.87 484.01 133.068C484.832 147.53 479.354 151.405 476.245 152.98Z" fill="black"/>
</svg>
