<?xml version="1.0" encoding="UTF-8"?> <svg xmlns="http://www.w3.org/2000/svg" width="1378" height="935" viewBox="0 0 1378 935" fill="none"><path d="M141.301 499.266C141.301 499.266 187.447 482.718 187.447 429.251C187.447 404.11 182.356 386.607 166.124 370.377C148.62 352.874 119.025 346.509 106.293 346.509H0V589.647H55.0563V510.404H85.6088L132.708 589.647H195.404L141.301 499.266V499.266ZM93.883 463.622H55.0563V393.29H93.5639C93.5639 393.29 132.391 393.608 132.391 426.069C132.391 458.53 108.204 463.622 93.883 463.622Z" fill="black"></path><path d="M245.686 346.509H410.219V392.972H299.47V443.574H397.17V490.037H299.787V541.91H372.664L347.843 589.647H245.686V346.509Z" fill="black"></path><path d="M403.536 589.647L531.469 346.509H597.983L469.728 589.647H403.536Z" fill="black"></path><path d="M597.983 589.647H651.765V438.798L709.368 514.223H711.595L769.517 438.798V589.647H823.616V346.509H766.015L710.642 425.115L655.265 346.509L597.983 453.12V589.647Z" fill="black"></path><path d="M1008.2 346.509H955.371L864.354 589.647H919.41L938.186 537.138H1023.16L1042.57 589.647H1098.9L1008.2 346.509ZM954.416 490.673L981.466 416.839L1006.61 490.673H954.416V490.673Z" fill="black"></path><path d="M1122.45 346.509L1194.37 465.85L1118.95 589.647H1180.05L1225.88 507.86L1271.07 589.647H1333.45L1257.38 464.895L1330.58 346.509H1269.16L1226.83 422.886L1184.51 346.509H1122.45Z" fill="black"></path><path d="M1359.54 346C1349.36 346 1341.08 354.273 1341.08 364.459C1341.08 374.642 1349.36 382.915 1359.54 382.915C1369.73 382.915 1378 374.642 1378 364.459C1378 354.273 1369.73 346 1359.54 346ZM1359.54 378.779C1351.58 378.779 1345.22 372.414 1345.22 364.459C1345.22 356.502 1351.58 350.137 1359.54 350.137C1367.5 350.137 1373.86 356.502 1373.86 364.459C1374.18 372.096 1367.5 378.779 1359.54 378.779Z" fill="black"></path><path d="M1360.81 354.273C1362.41 354.273 1363.68 354.593 1364.63 355.548C1365.59 356.502 1365.91 357.775 1365.91 359.366C1365.91 360.638 1365.59 361.913 1364.95 362.549C1364.31 363.503 1363.68 363.821 1362.41 364.139C1363.36 364.139 1364 364.459 1364.63 365.095C1364.95 365.732 1365.27 366.368 1365.59 367.641V370.504C1365.59 371.46 1365.59 372.415 1365.91 373.051C1365.91 373.687 1366.22 374.006 1366.54 374.324V374.642H1362.09C1361.77 374.324 1361.77 374.006 1361.77 373.687V368.595C1361.77 367.959 1361.45 367.321 1361.13 366.685C1360.81 366.368 1360.18 366.049 1359.22 366.049H1356.99V374.324H1352.86V354.273H1360.81ZM1359.22 363.185C1360.18 363.185 1360.81 362.867 1361.45 362.549C1362.09 362.231 1362.09 361.276 1362.09 360.32C1362.09 358.412 1361.13 357.456 1359.22 357.456H1357.31V363.185H1359.22V363.185Z" fill="black"></path></svg> 