<svg width="1378" height="935" viewBox="0 0 1378 935" fill="none" xmlns="http://www.w3.org/2000/svg">
<path d="M970.001 545.437C939.677 517.044 923.238 476.842 924.979 435.337C925.453 397.302 940.516 360.902 967.055 333.653C989.356 311.353 1023.16 293.821 1080.52 293.821C1098.62 293.778 1116.68 295.279 1134.52 298.309C1147.01 300.967 1159.66 302.841 1172.39 303.919C1176.6 303.919 1177.3 305.742 1177.3 307.986C1177.3 310.23 1176.17 315.42 1175.47 328.884C1174.77 342.349 1174.63 361.564 1174.35 367.174C1174.07 372.784 1173.23 375.028 1170.99 375.028C1168.74 375.028 1168.04 372.363 1168.04 367.174C1168.26 352.881 1162.58 339.13 1152.33 329.165C1130.39 314.372 1104.3 306.954 1077.86 307.986C1028.35 307.986 1005.34 322.012 992.301 335.196C965.092 361.283 958.78 394.383 958.78 432.392C957.851 506.671 1017.31 567.639 1091.59 568.569C1092.11 568.575 1092.63 568.579 1093.14 568.579C1121.19 568.579 1143.07 565.213 1157.94 549.925C1165.13 540.82 1169.95 530.074 1171.97 518.648C1171.97 514.581 1173.51 513.038 1175.75 513.038C1178 513.038 1178.28 515.703 1178.28 518.648C1176.54 534.695 1173.82 550.62 1170.14 566.335C1167.9 573.348 1167.2 574.189 1160.47 577.135C1138.7 583.459 1116.08 586.346 1093.42 585.69C1037.04 585.69 999.454 571.945 970.001 545.437Z" fill="black"/>
<path d="M1244.76 407.008V326.643C1244.76 314.721 1240.97 307.989 1228.63 305.464C1224.47 304.655 1220.24 304.279 1216.01 304.342C1214.6 304.342 1213.06 303.501 1213.06 302.098C1213.06 300.696 1214.88 299.012 1218.95 299.012C1235.78 299.012 1259.21 300.135 1261.03 300.135H1346.3C1351.67 299.91 1357.01 299.301 1362.29 298.311C1364.12 298.311 1365.66 296.348 1367.48 296.348C1369.3 296.348 1369.02 297.89 1369.02 299.714C1369.02 301.537 1367.2 306.867 1366.08 317.246C1366.08 320.892 1364.96 337.302 1364.12 341.79C1364.12 343.613 1362.99 345.857 1361.59 345.857C1360.19 345.857 1358.65 344.034 1358.65 341.089C1358.71 336.319 1357.95 331.573 1356.4 327.063C1353.74 321.173 1350.09 316.685 1329.89 314.44C1323.58 313.739 1283.05 313.318 1278.98 313.318C1277.44 313.318 1276.74 314.44 1276.74 317.105V419.771C1276.74 422.436 1276.74 423.558 1278.98 423.558C1283.75 423.558 1329.61 423.558 1338.17 422.717C1346.72 421.875 1352.19 421.314 1355.56 417.527C1358.93 413.741 1359.77 412.759 1361.17 412.759C1362.57 412.759 1362.99 412.759 1362.99 415.704C1362.99 418.649 1361.17 424.26 1360.05 436.462C1359.35 443.895 1358.65 457.78 1358.65 460.305C1358.65 462.83 1358.65 467.458 1355.98 467.458C1353.32 467.458 1353.32 465.915 1353.32 464.092C1353.48 459.93 1353.01 455.767 1351.91 451.749C1350.37 446.56 1347 440.249 1332.56 438.706C1322.46 437.584 1285.57 436.883 1279.26 436.883C1277.95 436.796 1276.81 437.79 1276.72 439.104C1276.71 439.252 1276.72 439.4 1276.74 439.547V535.902C1277.86 561.569 1283.47 566.478 1319.93 566.478C1331.96 567.162 1344.02 565.738 1355.56 562.27C1365.24 558.203 1369.58 550.769 1372.39 535.481C1372.39 531.414 1373.79 530.012 1375.76 530.012C1377.72 530.012 1378 532.957 1378 535.481C1378 538.006 1374.91 563.532 1373.09 571.667C1371.27 579.802 1367.48 581.345 1353.03 581.345C1296.93 581.345 1271.83 579.101 1261.03 579.101C1259.2 579.101 1235.78 580.223 1224.56 580.223C1220.49 580.223 1218.67 579.381 1218.67 577.277C1218.67 575.173 1218.67 575.033 1221.62 575.033C1225.4 574.864 1229.15 574.347 1232.84 573.49C1240.27 571.948 1242.09 563.813 1243.64 553.013C1245.46 537.445 1245.46 507.992 1245.46 472.227L1244.76 407.008Z" fill="black"/>
<path d="M821.471 572.932C816.677 573.186 811.887 572.372 807.446 570.548C795.451 565.217 784.774 557.317 776.169 547.406C754.57 524.264 729.184 491.304 698.749 452.033C732.27 421.177 743.77 393.687 743.77 366.057C743.373 346.151 733.925 327.512 718.104 315.425C697.62 303.075 673.787 297.435 649.94 299.296C638.439 299.296 610.108 300.418 606.041 300.418C604.217 300.418 580.795 299.296 563.964 299.296C559.897 299.296 558.074 300.138 558.074 302.382C558.074 304.626 559.476 304.626 561.019 304.626C565.254 304.563 569.484 304.939 573.642 305.748C585.984 308.272 588.93 314.303 589.631 326.926C590.332 339.549 590.473 349.227 590.473 407.292V472.791C590.473 508.556 590.472 538.009 588.509 553.577C587.106 564.377 585.143 572.511 577.709 574.054C574.072 574.912 570.363 575.428 566.629 575.597C564.385 575.597 563.684 576.719 563.684 577.841C563.684 578.963 565.507 580.787 569.575 580.787C580.795 580.787 604.217 579.664 604.498 579.664C604.779 579.664 629.884 580.787 650.361 580.787C654.428 580.787 656.252 579.664 656.252 577.841C656.252 576.018 656.252 575.597 653.306 575.597C650.361 575.597 641.806 574.756 636.616 574.054C625.396 572.511 622.591 564.377 622.591 553.577C620.768 538.009 620.768 508.556 620.768 472.791V463.814C620.768 461.991 620.768 460.869 623.292 460.869L669.155 461.711C670.985 461.632 672.748 462.41 673.924 463.814C681.357 473.492 698.889 498.457 714.598 518.934C735.776 546.985 748.82 565.078 764.809 573.634C777.169 579.656 790.957 582.132 804.641 580.787H815.581C826.661 580.787 850.223 579.664 852.047 579.664C853.87 579.664 877.293 580.787 897.77 580.787C901.977 580.787 903.801 579.664 903.801 577.841C903.801 576.018 902.959 575.597 900.855 575.597C898.751 575.597 889.214 574.756 884.025 574.054C872.945 572.511 869.999 564.377 869.999 553.577C868.036 538.009 868.036 508.556 868.036 472.791V407.011C868.036 348.946 868.036 338.567 868.877 326.645C869.719 314.724 872.524 307.29 882.903 305.467C886.12 304.709 889.415 304.332 892.72 304.345C894.037 304.347 895.107 303.282 895.109 301.965L895.105 301.82C895.105 299.717 893.141 299.015 889.214 299.015C877.994 299.015 854.571 300.137 852.748 300.137C850.925 300.137 825.539 299.296 813.337 299.296C809.269 299.296 807.306 300.137 807.306 302.381C807.306 304.626 808.848 304.626 810.391 304.626C814.268 304.625 818.13 305.096 821.892 306.028C830.027 307.992 833.814 314.303 834.515 326.926C835.216 339.549 834.515 349.226 834.515 407.292V472.79C834.515 508.555 834.515 538.009 832.692 553.577C832.254 558.39 831.121 563.115 829.326 567.602C827.697 570.841 824.395 572.898 820.77 572.932H821.471ZM689.212 442.776C680.791 447.91 671.006 450.356 661.161 449.789C647.812 450.396 634.473 448.395 621.889 443.898C620.268 442.999 619.291 441.263 619.365 439.41V317.669C619.29 315.699 620.472 313.897 622.31 313.181C630.522 311.503 638.896 310.75 647.275 310.937C687.108 310.937 711.652 338.988 711.652 385.412C711.933 413.744 702.255 433.8 689.212 442.776Z" fill="black"/>
<path d="M418.101 439.548C418.155 560.859 344.576 670.062 232.124 715.568C217.333 721.594 200.771 721.594 185.98 715.568C73.5273 670.062 -0.0520405 560.859 0.0024904 439.548V260.022C-0.128488 252.277 4.9188 245.394 12.3449 243.191C63.9438 228.022 117.129 218.891 170.832 215.982C183.455 215.982 196.218 215 208.982 215C275.437 214.928 341.561 224.374 405.338 243.051C412.657 245.32 417.656 252.079 417.68 259.742L418.101 439.548Z" fill="black"/>
<path d="M205.055 564.511C201.26 564.51 198.182 567.586 198.181 571.382L198.183 571.523C198.127 572.552 198.37 573.575 198.884 574.469L204.354 585.97C204.356 586.357 204.672 586.669 205.059 586.667C205.443 586.665 205.754 586.354 205.756 585.97L211.226 574.469C211.672 573.55 211.911 572.545 211.928 571.523C212.005 567.729 208.992 564.59 205.197 564.512L205.055 564.511Z" fill="#F0F8FF"/>
<path d="M176.863 589.62C176.877 587.158 175.599 584.869 173.496 583.589H172.795C172.221 583.193 171.435 583.337 171.039 583.911C170.932 584.066 170.861 584.244 170.832 584.43C170.692 586.532 170.692 588.64 170.832 590.742C170.844 600.652 173.612 610.364 178.826 618.792C180.209 621.009 181.756 623.119 183.454 625.104C183.792 625.339 184.239 625.339 184.576 625.104C184.964 624.724 184.97 624.103 184.591 623.715L184.576 623.701C179.331 613.909 176.585 602.972 176.582 591.863C176.601 591.108 176.695 590.356 176.862 589.619L176.863 589.62Z" fill="#F0F8FF"/>
<path d="M209.824 658.065L211.928 654.699C212.656 653.342 212.156 651.652 210.806 650.912L209.263 649.93C208.944 649.644 208.46 649.644 208.141 649.93C206.747 653.067 205.154 656.112 203.372 659.047C201.767 661.6 198.954 663.139 195.939 663.114H193.414C191.982 663.133 190.704 664.021 190.188 665.358V666.34C190.033 666.778 190.262 667.259 190.699 667.415C190.805 667.452 190.918 667.468 191.03 667.462H192.433C192.699 667.588 193.008 667.588 193.274 667.462C193.92 665.939 195.653 665.196 197.201 665.779C196.891 666.011 196.829 666.451 197.061 666.761C197.101 666.814 197.148 666.861 197.201 666.901H201.549C201.815 667.027 202.124 667.027 202.391 666.901V664.096C202.978 662.603 204.07 661.362 205.476 660.589C207.136 660.179 208.645 659.303 209.824 658.065Z" fill="#F0F8FF"/>
<path d="M226.794 648.949C226.487 648.6 225.955 648.567 225.607 648.874L225.532 648.949C224.132 652.449 222.443 655.827 220.483 659.047C218.841 661.561 216.051 663.087 213.049 663.115H210.525C209.079 663.092 207.781 663.996 207.299 665.359V666.341C207.057 666.643 207.106 667.084 207.409 667.326C207.575 667.459 207.793 667.509 208 667.463H209.403C209.713 667.613 210.075 667.613 210.385 667.463C210.949 665.937 212.643 665.158 214.169 665.723L214.312 665.78C214.156 666.217 214.385 666.699 214.823 666.854C214.929 666.892 215.041 666.908 215.153 666.902H223.008C223.594 666.48 224.384 666.48 224.971 666.902L226.514 667.743H229.179V665.499C228.875 664.511 227.968 663.831 226.935 663.816H224.971C224.971 663.816 223.989 662.974 224.971 662.413L226.093 661.011C227.215 659.328 228.337 657.645 229.319 655.962L230.441 653.858C231.204 652.51 230.73 650.798 229.382 650.035L229.179 649.931L226.794 648.949Z" fill="#F0F8FF"/>
<path d="M231.001 551.748C232.13 552.768 233.038 554.009 233.666 555.395C234.479 556.847 235.845 557.909 237.453 558.34C240.165 559.005 242.701 560.249 244.886 561.986C244.873 557.524 243.503 553.171 240.959 549.504C240.581 548.845 239.894 548.423 239.136 548.382H238.435C235.386 548.468 232.462 549.608 230.16 551.608C230.16 551.608 231.001 550.906 231.001 551.748Z" fill="#F0F8FF"/>
<path d="M235.77 561.846C235.615 563.708 235.091 565.52 234.227 567.176C233.528 568.442 233.528 569.978 234.227 571.243C235.179 573.748 235.609 576.421 235.489 579.098C239.024 576.989 241.892 573.927 243.764 570.262C244.845 568.046 244.265 565.377 242.362 563.81C240.584 562.353 238.457 561.386 236.19 561.005L235.77 561.846Z" fill="#F0F8FF"/>
<path d="M215.153 549.508C217.166 548.366 219.431 547.739 221.745 547.685H225.532C226.643 547.727 227.735 547.38 228.617 546.703C230.65 544.974 233.047 543.727 235.63 543.056C233.732 541.684 231.59 540.685 229.319 540.111C228.483 539.977 227.63 539.977 226.794 540.111H224.41C222.143 540.535 220.049 541.607 218.379 543.197C216.571 544.918 215.18 547.028 214.312 549.368L215.153 549.508Z" fill="#F0F8FF"/>
<path d="M198.323 545.302C199.477 547.565 200.325 549.97 200.847 552.455C201.2 555.155 201.2 557.89 200.847 560.59C202.771 560.029 204.815 560.029 206.738 560.59C206.386 557.89 206.386 555.155 206.738 552.455C207.133 549.936 207.989 547.511 209.263 545.302C209.787 544.227 210.396 543.195 211.086 542.217C208.68 543.543 206.541 545.302 204.774 547.406C203.985 548.258 202.653 548.309 201.801 547.519L201.689 547.406C199.923 545.302 197.783 543.543 195.377 542.217C196.456 543.149 197.442 544.182 198.323 545.302Z" fill="#F0F8FF"/>
<path d="M181.211 547.122C182.093 547.799 183.185 548.146 184.296 548.104H188.083C190.397 548.158 192.662 548.785 194.675 549.927H195.376C194.507 547.587 193.116 545.477 191.309 543.756C189.639 542.166 187.544 541.094 185.278 540.67H182.894C182.06 540.511 181.203 540.511 180.369 540.67C178.088 541.216 175.941 542.218 174.058 543.616C176.667 544.256 179.107 545.452 181.211 547.122Z" fill="#F0F8FF"/>
<path d="M176.164 554.977C176.892 553.615 177.839 552.383 178.969 551.33C176.667 549.33 173.742 548.19 170.694 548.104C169.935 548.146 169.249 548.568 168.87 549.227C166.259 552.86 164.882 557.235 164.943 561.709C167.114 559.948 169.655 558.701 172.377 558.063C174.044 557.666 175.439 556.53 176.164 554.977Z" fill="#F0F8FF"/>
<path d="M175.182 579.805C175.062 577.128 175.492 574.455 176.444 571.951C177.072 570.668 177.072 569.167 176.444 567.883C175.61 566.205 175.043 564.407 174.761 562.554C172.431 562.952 170.251 563.969 168.45 565.499C167.556 566.189 166.955 567.191 166.767 568.304C166.344 569.386 166.344 570.588 166.767 571.67C168.548 575.434 171.435 578.565 175.042 580.647C175.042 580.647 175.042 579.805 175.182 579.805Z" fill="#F0F8FF"/>
<path d="M231.421 636.602C226.215 630.523 222.088 623.597 219.219 616.125C216.402 608.351 215.024 600.129 215.151 591.861C215.081 590.553 215.081 589.242 215.151 587.934C214.532 587.934 214.029 587.432 214.029 586.812C213.952 585.187 215.206 583.807 216.831 583.73C216.879 583.727 216.927 583.726 216.975 583.726H227.494C229.268 583.43 230.636 582.004 230.86 580.22C231.023 577.964 230.638 575.703 229.738 573.628C227.769 574.738 225.546 575.318 223.286 575.311C221.344 575.327 219.424 574.895 217.676 574.049C217.433 575.011 217.105 575.95 216.694 576.854L210.383 590.879C209.424 592.738 207.141 593.469 205.282 592.51C204.581 592.15 204.011 591.579 203.65 590.879L197.339 576.854C196.928 575.95 196.6 575.011 196.357 574.049C194.609 574.895 192.689 575.327 190.747 575.311C188.487 575.318 186.264 574.738 184.295 573.628C183.395 575.703 183.01 577.964 183.173 580.22C183.397 582.004 184.766 583.43 186.539 583.726H197.059C198.685 583.724 200.005 585.042 200.007 586.668C200.007 586.716 200.006 586.764 200.004 586.812C200.004 587.432 199.501 587.934 198.882 587.934H182.893C182.196 587.934 181.631 588.499 181.631 589.196C181.561 590.364 181.561 591.535 181.631 592.703C181.644 604.866 185.096 616.779 191.589 627.065C194.459 631.683 197.951 635.883 201.968 639.547C205.883 643.28 210.268 646.486 215.011 649.085C215.064 648.666 215.064 648.242 215.011 647.823C215.432 646.356 215.432 644.801 215.011 643.334C214.736 641.868 214.056 640.507 213.048 639.407C210.019 636.108 207.296 632.54 204.913 628.748C204.855 628.423 204.855 628.091 204.913 627.766C204.817 627.494 204.817 627.197 204.913 626.925C205.42 626.8 205.949 626.8 206.456 626.925C207.484 626.919 208.441 627.451 208.98 628.327C212.023 632.94 215.601 637.177 219.64 640.95C221.463 642.493 223.286 644.036 225.25 645.438L230.299 648.804L231.14 646.42C231.491 645.039 231.491 643.593 231.14 642.212C230.828 640.8 230.151 639.494 229.177 638.426L231.421 636.602Z" fill="#F0F8FF"/>
<path d="M238.574 643.616C237.579 646.85 236.313 649.993 234.787 653.013C239.075 654.963 243.478 656.649 247.971 658.062C248.231 658.213 248.552 658.213 248.813 658.062L250.776 654.977V653.574C251.328 652.982 251.328 652.063 250.776 651.47C246.433 649.307 242.341 646.674 238.574 643.616Z" fill="#F0F8FF"/>
<path d="M262.84 644.456C254.285 641.034 246.683 635.597 240.68 628.607C235.784 623.129 232.103 616.676 229.881 609.673C229.73 609.413 229.73 609.092 229.881 608.831C230.111 608.772 230.352 608.772 230.582 608.831H231.564C232.838 608.875 233.978 609.635 234.509 610.795C236.548 616.291 239.487 621.41 243.205 625.942C246.699 630.024 250.817 633.527 255.407 636.321C258.734 638.317 262.259 639.962 265.926 641.23V638.425C265.427 635.283 263.514 632.543 260.737 630.992C256.374 628.451 252.445 625.231 249.095 621.454C244.48 616.082 241.211 609.687 239.558 602.8C239.492 602.524 239.492 602.236 239.558 601.959C239.788 601.9 240.029 601.9 240.259 601.959C241.683 601.905 242.958 602.833 243.345 604.203C244.09 606.989 245.173 609.674 246.571 612.197C247.913 614.728 249.562 617.083 251.48 619.21C254.551 622.786 258.202 625.82 262.279 628.186H262.981C261.508 620.388 259.493 612.702 256.95 605.185C255.481 600.749 253.302 596.58 250.498 592.842C247.899 589.211 244.668 586.075 240.961 583.586C240.549 583.465 240.111 583.465 239.698 583.586C239.25 583.399 238.745 583.399 238.296 583.586C235.995 585.401 233.38 586.78 230.582 587.653C227.793 588.663 224.852 589.185 221.886 589.196H218.801C218.078 589.192 217.47 589.739 217.398 590.458V593.544C217.392 601.299 218.769 608.993 221.465 616.265C226.656 629.762 236.176 641.156 248.534 648.664C254.364 652.257 260.769 654.819 267.469 656.237C267.405 655.537 267.405 654.833 267.469 654.134C267.75 650.315 265.99 646.633 262.84 644.456Z" fill="#F0F8FF"/>
<path d="M222.306 648.389V646.705C222.306 646.144 222.306 646.705 222.306 646.705L219.781 644.602L222.306 648.389ZM218.939 644.602V646.565V644.602ZM218.939 647.266L221.604 648.809C221.604 648.809 222.165 648.669 222.306 648.389L218.94 647.266H218.939Z" fill="#F0F8FF"/>
<path d="M222.025 551.749C216.835 551.749 212.628 555.956 212.628 561.146C212.628 566.336 216.835 570.543 222.025 570.543C227.215 570.543 231.422 566.336 231.422 561.146C231.422 555.956 227.215 551.749 222.025 551.749ZM222.025 567.598C218.6 567.455 215.856 564.711 215.714 561.286C215.662 558.544 217.349 556.069 219.921 555.115C219.921 555.115 220.903 555.115 219.921 555.957C219.115 556.885 218.711 558.096 218.799 559.323C218.931 561.847 220.909 563.884 223.428 564.091C224.676 564.158 225.897 563.7 226.794 562.829L222.025 567.598ZM227.635 562.829C226.914 565.449 224.598 567.313 221.885 567.457L227.635 562.829Z" fill="#F0F8FF"/>
<path d="M188.083 551.749C182.893 551.749 178.686 555.956 178.686 561.146C178.686 566.336 182.893 570.543 188.083 570.543C193.272 570.543 197.48 566.336 197.48 561.146C197.48 555.956 193.272 551.749 188.083 551.749ZM188.083 567.598C184.597 567.598 181.771 564.772 181.771 561.286C181.628 558.518 183.349 555.994 185.979 555.115L188.083 567.598ZM185.979 555.957C185.127 556.858 184.716 558.09 184.857 559.323C184.926 561.874 186.937 563.947 189.485 564.091C190.729 564.126 191.937 563.673 192.851 562.829L185.979 555.957ZM193.693 562.829C192.972 565.449 190.656 567.313 187.942 567.457L193.693 562.829Z" fill="#F0F8FF"/>
<path d="M74.897 282.461C71.1014 282.444 68.011 285.507 67.9942 289.303C67.9894 290.385 68.2401 291.452 68.7258 292.419L74.1957 303.92C74.3814 304.346 74.8774 304.541 75.3034 304.355C75.4982 304.27 75.6536 304.115 75.7385 303.92L81.2084 292.419C81.6539 291.5 81.8932 290.495 81.9097 289.474C81.835 285.632 78.7387 282.536 74.897 282.461Z" fill="#F0F8FF"/>
<path d="M46.8493 307.567C46.9544 305.083 45.6528 302.751 43.4832 301.536H42.7819C42.2029 301.148 41.4188 301.303 41.0305 301.882C40.9037 302.071 40.8304 302.291 40.8183 302.518C40.6745 304.573 40.6745 306.635 40.8183 308.689C40.8304 318.6 43.5984 328.312 48.8128 336.74C50.2006 338.989 51.7973 341.102 53.5815 343.052C53.901 343.337 54.3841 343.337 54.7035 343.052C55.0317 342.642 55.0317 342.059 54.7035 341.649C49.5013 331.846 46.8031 320.909 46.8493 309.811V307.567Z" fill="#F0F8FF"/>
<path d="M80.0866 376.011C80.7878 374.889 81.4891 373.767 82.0501 372.645C82.7295 371.316 82.3077 369.689 81.0683 368.858L79.5255 368.016C79.2181 367.668 78.6863 367.634 78.3377 367.942L78.2632 368.016C76.8693 371.154 75.2765 374.199 73.4946 377.133C71.8896 379.686 69.0766 381.225 66.0611 381.2H63.6768C62.4005 381.376 61.3234 382.238 60.8717 383.444V384.426C60.6299 384.729 60.6792 385.17 60.9817 385.412C61.1479 385.544 61.3654 385.595 61.573 385.548H62.9755C63.2418 385.675 63.5507 385.675 63.817 385.548C64.4631 384.025 66.1956 383.283 67.7442 383.865C67.5885 384.303 67.8172 384.784 68.2551 384.94C68.3611 384.978 68.4735 384.994 68.5858 384.987H72.9337V382.182C73.5672 380.717 74.647 379.49 76.0192 378.676C77.5535 378.095 78.9419 377.186 80.0866 376.011Z" fill="#F0F8FF"/>
<path d="M97.058 366.899H95.7957C94.348 370.402 92.6123 373.78 90.6063 376.997C89.0013 379.55 86.1883 381.089 83.1728 381.064H80.6482C79.2154 381.083 77.9381 381.971 77.4224 383.308V384.29C77.2667 384.728 77.4954 385.209 77.9334 385.365C78.0393 385.403 78.1517 385.419 78.264 385.412H79.6665C79.9328 385.539 80.2418 385.539 80.5081 385.412C81.1541 383.889 82.8866 383.147 84.4352 383.729C84.1934 384.032 84.2427 384.473 84.5452 384.715C84.7114 384.847 84.9289 384.898 85.1365 384.851H92.9907C93.5774 384.43 94.3675 384.43 94.9543 384.851L96.4971 385.693H99.7229V383.449C99.4189 382.46 98.5127 381.781 97.4788 381.766H95.6555C95.2682 381.509 95.1626 380.986 95.4195 380.599C95.4815 380.505 95.5618 380.425 95.6555 380.363L96.6373 378.96C97.7593 377.277 98.8814 375.594 99.8632 373.911C100.291 373.24 100.667 372.537 100.985 371.807C101.648 370.521 101.222 368.941 100.003 368.161L97.058 366.898V366.899Z" fill="#F0F8FF"/>
<path d="M101.127 268.996C102.17 270.091 103.066 271.317 103.792 272.643C104.548 274.087 105.868 275.153 107.439 275.588C110.17 276.198 112.718 277.448 114.872 279.235C114.908 274.786 113.587 270.431 111.085 266.752C110.63 266.105 109.91 265.694 109.122 265.63H108.42C105.413 265.713 102.532 266.856 100.286 268.856C100.286 268.856 101.127 268.856 101.127 268.997V268.996Z" fill="#F0F8FF"/>
<path d="M105.894 279.796C105.743 281.677 105.167 283.499 104.211 285.126C103.657 286.425 103.657 287.894 104.211 289.193C105.232 291.679 105.665 294.367 105.473 297.047C108.97 294.936 111.792 291.871 113.608 288.211C114.026 287.08 114.026 285.836 113.608 284.705C113.418 283.519 112.762 282.458 111.784 281.76C110.025 280.273 107.89 279.302 105.613 278.955L105.893 279.796H105.894Z" fill="#F0F8FF"/>
<path d="M85.2767 267.453C87.2899 266.31 89.5546 265.684 91.8687 265.629H95.7958C96.8613 265.651 97.9016 265.304 98.7411 264.648C100.809 262.973 103.195 261.732 105.754 261.001C103.855 259.629 101.714 258.629 99.4424 258.056C98.5602 257.909 97.6598 257.909 96.7776 258.056H94.3932C92.1571 258.448 90.0984 259.526 88.5026 261.141C86.6365 262.841 85.1953 264.955 84.2949 267.312L85.2766 267.453H85.2767Z" fill="#F0F8FF"/>
<path d="M68.585 263.245C69.7541 265.488 70.559 267.902 70.9693 270.398C71.5559 273.067 71.7916 275.802 71.6706 278.533C73.5941 277.971 75.6377 277.971 77.5613 278.533C77.2087 275.832 77.2087 273.098 77.5613 270.398C78.0832 267.912 78.9321 265.507 80.0859 263.245C80.6099 262.169 81.2196 261.137 81.9092 260.159C79.522 261.453 77.4225 263.219 75.738 265.349C75.1956 265.553 74.5973 265.553 74.0549 265.349C73.5568 265.531 73.0102 265.531 72.5121 265.349C70.7459 263.245 68.6062 261.485 66.2007 260.159C67.0814 261.118 67.879 262.151 68.585 263.245Z" fill="#F0F8FF"/>
<path d="M51.3343 265.074C52.2169 265.752 53.3084 266.099 54.4199 266.056H58.2068C60.5209 266.111 62.7856 266.737 64.7988 267.88C63.7979 265.576 62.3703 263.482 60.5911 261.708C58.9555 260.148 56.9144 259.079 54.7004 258.623H52.1759C51.3397 258.489 50.4875 258.489 49.6513 258.623C47.3801 259.196 45.2384 260.196 43.3398 261.568C46.2559 262.05 49.0046 263.255 51.3343 265.074Z" fill="#F0F8FF"/>
<path d="M46.8456 272.927C47.531 271.575 48.4309 270.344 49.5104 269.28C47.2272 267.249 44.291 266.104 41.2354 266.054C40.4265 266.047 39.6763 266.476 39.2718 267.176C36.7282 270.843 35.3586 275.196 35.3447 279.659C37.5305 277.921 40.0663 276.677 42.7782 276.012C44.5325 275.655 46.0291 274.52 46.8456 272.927Z" fill="#F0F8FF"/>
<path d="M45.3051 298.034C45.1856 295.357 45.6152 292.684 46.5674 290.179C47.5942 288.732 47.7031 286.825 46.8479 285.271C45.8913 283.644 45.3159 281.822 45.1649 279.941C42.8745 280.46 40.7223 281.464 38.8534 282.886C38.0046 283.615 37.4143 284.599 37.1704 285.691C36.7479 286.774 36.7479 287.975 37.1704 289.057C38.9947 292.792 41.871 295.912 45.4454 298.034H45.3051Z" fill="#F0F8FF"/>
<path d="M101.686 354.552C96.2129 348.566 91.8867 341.625 88.9227 334.075C85.9538 326.33 84.4325 318.105 84.4346 309.811C84.3645 308.503 84.3645 307.192 84.4346 305.884C83.8428 305.821 83.3753 305.353 83.3125 304.762C83.3125 303.057 84.694 301.676 86.3981 301.676H96.7769C98.5744 301.425 99.9661 299.976 100.143 298.17C100.35 295.925 100.013 293.664 99.1613 291.578C97.2005 292.707 94.9721 293.288 92.7096 293.261C90.7689 293.262 88.8522 292.831 87.0994 291.998C86.9612 292.945 86.6269 293.853 86.1176 294.663L79.8062 308.689C79.1975 309.993 77.8789 310.817 76.4401 310.792C75.0201 310.752 73.7329 309.947 73.0739 308.689L66.7625 294.663C66.3563 293.82 66.073 292.922 65.921 291.998C64.115 292.821 62.155 293.251 60.1705 293.261C57.9105 293.268 55.6873 292.688 53.7188 291.578C52.8667 293.664 52.5299 295.925 52.7371 298.17C52.8995 299.932 54.2204 301.367 55.9629 301.676H66.482C68.1861 301.676 69.5676 303.057 69.5676 304.762C69.5048 305.353 69.0372 305.821 68.4456 305.884H52.4567C51.7639 305.806 51.1394 306.305 51.062 306.998C51.0565 307.047 51.0539 307.096 51.0542 307.146V310.652C51.1824 322.516 54.5794 334.115 60.872 344.173C63.7861 348.759 67.2739 352.954 71.2508 356.656C75.1566 360.399 79.5429 363.606 84.2944 366.193V364.931C84.7153 363.464 84.7153 361.909 84.2944 360.443C84.0771 358.957 83.3889 357.581 82.3309 356.515C79.3464 353.214 76.6704 349.646 74.3364 345.856C74.1257 345.563 74.1257 345.168 74.3364 344.874C74.21 344.608 74.21 344.299 74.3364 344.033C74.8406 343.889 75.375 343.889 75.8792 344.033C76.9011 344.053 77.8465 344.579 78.4038 345.435C81.4074 350.078 84.9892 354.32 89.0631 358.058C90.7939 359.664 92.6206 361.162 94.533 362.546L99.5822 365.913L100.424 363.528C100.774 362.148 100.774 360.701 100.424 359.321C100.105 357.938 99.4822 356.645 98.6004 355.534L101.686 354.552Z" fill="#F0F8FF"/>
<path d="M108.7 361.565C107.705 364.799 106.439 367.943 104.913 370.962C109.21 372.89 113.612 374.576 118.097 376.012C118.411 376.144 118.765 376.144 119.079 376.012L120.902 372.926L121.744 371.523C122.236 370.909 122.236 370.034 121.744 369.42C117.108 367.312 112.731 364.676 108.7 361.565Z" fill="#F0F8FF"/>
<path d="M132.964 362.405C129.802 361.117 126.753 359.569 123.847 357.777C118.945 354.791 114.543 351.052 110.803 346.697C106.003 340.992 102.337 334.423 100.004 327.342C99.8776 327.075 99.8776 326.766 100.004 326.5H100.986C102.271 326.509 103.428 327.281 103.931 328.464C106.032 334.294 109.221 339.672 113.328 344.312C116.805 348.358 120.871 351.857 125.39 354.691C128.729 356.665 132.252 358.309 135.909 359.6V356.795C135.286 353.665 133.343 350.956 130.579 349.362C126.217 346.821 122.288 343.601 118.938 339.824C114.365 334.444 111.143 328.048 109.541 321.171L132.964 362.405ZM109.541 320.329C109.771 320.27 110.012 320.27 110.243 320.329C111.614 320.339 112.814 321.254 113.188 322.573C113.97 325.347 115.051 328.028 116.414 330.568C117.838 333.091 119.481 335.484 121.323 337.721C124.448 341.259 128.146 344.246 132.262 346.557C130.834 338.762 128.866 331.076 126.372 323.555C124.846 319.143 122.672 314.983 119.92 311.212C117.251 307.641 114.032 304.517 110.383 301.956C109.926 301.815 109.437 301.815 108.98 301.956C108.529 301.783 108.029 301.783 107.578 301.956C105.298 303.76 102.74 305.181 100.004 306.163C97.1887 307.05 94.2594 307.522 91.3082 307.566H88.0823C87.3852 307.566 86.82 308.131 86.82 308.828C86.7501 309.855 86.7501 310.886 86.82 311.914C86.8581 327.341 92.3756 342.253 102.388 353.99C111.466 364.408 123.582 371.717 137.031 374.888V372.784C137.881 368.822 136.279 364.735 132.964 362.405L109.541 320.329Z" fill="#F0F8FF"/>
<path d="M92.4299 366.332V364.649L89.9054 362.545H89.2041V364.508C90.0425 365.104 90.9347 365.621 91.8689 366.051L92.4299 366.332Z" fill="#F0F8FF"/>
<path d="M92.151 269.561C86.9611 269.561 82.7539 273.768 82.7539 278.958C82.7539 284.147 86.9611 288.355 92.151 288.355C97.3408 288.355 101.548 284.147 101.548 278.958C101.548 273.768 97.3408 269.561 92.151 269.561ZM92.151 285.409C88.6965 285.335 85.9138 282.552 85.8395 279.098C85.8907 276.345 87.6126 273.901 90.1874 272.927L92.151 285.409ZM90.1874 273.768C89.3436 274.683 88.8906 275.891 88.9251 277.134C89.1244 279.681 91.1472 281.704 93.6937 281.903C94.9326 281.909 96.1307 281.46 97.0599 280.641C97.0599 280.641 98.0416 280.641 97.0599 280.641C96.466 283.062 94.474 284.888 92.0107 285.269L90.1874 273.768Z" fill="#F0F8FF"/>
<path d="M58.2086 269.561C53.0187 269.561 48.8115 273.768 48.8115 278.958C48.8115 284.147 53.0187 288.355 58.2086 288.355C63.3984 288.355 67.6056 284.147 67.6056 278.958C67.6056 273.768 63.3984 269.561 58.2086 269.561ZM58.2086 285.409C54.7541 285.335 51.9714 282.552 51.8971 279.098C51.9483 276.345 53.6702 273.901 56.245 272.927L58.2086 285.409ZM56.245 273.768C55.4975 274.729 55.1016 275.917 55.123 277.134C55.2548 279.658 57.2325 281.696 59.7514 281.903C61.0361 281.931 62.2855 281.481 63.2577 280.641C63.2577 280.641 64.2395 280.641 63.959 280.641C63.2635 283.335 60.8508 285.231 58.0683 285.269L56.2451 273.768H56.245Z" fill="#F0F8FF"/>
<path d="M319.221 282.463C315.425 282.446 312.335 285.51 312.318 289.305C312.313 290.387 312.564 291.455 313.05 292.421L318.519 303.922C318.705 304.348 319.201 304.543 319.627 304.357C319.822 304.272 319.977 304.117 320.062 303.922L325.532 292.421C327.237 289.03 325.871 284.899 322.48 283.194C321.47 282.686 320.351 282.435 319.221 282.463Z" fill="#F0F8FF"/>
<path d="M291.03 307.567C291.135 305.083 289.833 302.751 287.664 301.536H286.962C286.383 301.148 285.599 301.303 285.211 301.882C285.084 302.071 285.011 302.291 284.999 302.518C284.856 304.573 284.856 306.635 284.999 308.689C284.718 321.326 289.228 333.601 297.622 343.052C297.941 343.337 298.424 343.337 298.744 343.052C299.131 342.672 299.137 342.051 298.758 341.663L298.744 341.649C293.542 331.846 290.843 320.909 290.889 309.811L291.03 307.567Z" fill="#F0F8FF"/>
<path d="M324.131 376.014C324.131 374.892 325.533 373.77 326.094 372.648C326.846 371.328 326.411 369.65 325.112 368.861L323.57 368.02C323.205 367.713 322.672 367.713 322.307 368.02C320.97 371.184 319.375 374.233 317.539 377.136C315.934 379.689 313.121 381.229 310.105 381.204H307.721C306.237 381.164 304.889 382.063 304.355 383.448V384.43C304.045 384.662 303.982 385.102 304.215 385.411C304.254 385.465 304.302 385.512 304.355 385.552H306.599C307.186 384.047 308.876 383.297 310.386 383.869C310.23 384.306 310.459 384.788 310.897 384.943C311.003 384.981 311.115 384.997 311.227 384.991H315.575C315.845 385.1 316.147 385.1 316.417 384.991V383.869L317.118 382.186C317.698 380.731 318.731 379.502 320.063 378.679C321.659 378.226 323.078 377.297 324.131 376.014Z" fill="#F0F8FF"/>
<path d="M341.382 366.898C341.074 366.55 340.543 366.516 340.194 366.824L340.119 366.898C338.672 370.402 336.936 373.78 334.93 376.997C333.325 379.55 330.512 381.089 327.497 381.064H324.972C323.539 381.083 322.262 381.971 321.746 383.308V384.29C321.59 384.728 321.819 385.209 322.257 385.365C322.363 385.402 322.475 385.418 322.588 385.412H323.99C324.257 385.538 324.565 385.538 324.832 385.412C325.478 383.889 327.21 383.146 328.759 383.729C328.759 383.729 328.759 384.851 329.6 384.851H337.315C337.957 384.443 338.776 384.443 339.418 384.851L340.961 385.692H344.187V383.448C343.925 382.431 342.993 381.732 341.943 381.765H340.12C339.732 381.508 339.627 380.986 339.884 380.599C339.946 380.505 340.026 380.425 340.12 380.363L341.101 378.96C342.223 377.277 343.345 375.594 344.327 373.911L345.59 371.807C346.16 370.481 345.685 368.937 344.467 368.161L341.382 366.898Z" fill="#F0F8FF"/>
<path d="M345.31 268.996C346.389 270.06 347.289 271.292 347.975 272.643C348.73 274.087 350.051 275.153 351.621 275.588C354.353 276.198 356.901 277.448 359.055 279.235C359.041 274.772 357.671 270.419 355.128 266.752C354.703 266.072 353.966 265.65 353.164 265.63H352.463C349.456 265.713 346.575 266.856 344.328 268.856L345.31 268.997V268.996Z" fill="#F0F8FF"/>
<path d="M350.076 279.796C349.925 281.677 349.35 283.499 348.393 285.126C347.765 286.409 347.765 287.91 348.393 289.193C349.372 291.689 349.756 294.378 349.515 297.047C353.013 294.936 355.835 291.871 357.65 288.211C357.997 287.068 357.997 285.848 357.65 284.705C357.351 283.563 356.716 282.537 355.827 281.76C354.013 280.274 351.833 279.305 349.515 278.955L350.076 279.796Z" fill="#F0F8FF"/>
<path d="M329.459 267.454C331.472 266.311 333.737 265.685 336.051 265.631H339.838C340.907 265.677 341.956 265.327 342.783 264.649C344.884 262.943 347.322 261.7 349.936 261.002C348.038 259.63 345.896 258.631 343.625 258.057C342.923 257.665 342.167 257.381 341.381 257.215H338.856C336.632 257.641 334.582 258.715 332.965 260.301C331.186 262.074 329.759 264.168 328.758 266.472L329.459 267.454Z" fill="#F0F8FF"/>
<path d="M313.33 263.245C314.484 265.507 315.333 267.912 315.855 270.398C316.139 273.102 316.139 275.828 315.855 278.533C316.784 278.385 317.731 278.385 318.66 278.533C319.636 278.375 320.63 278.375 321.605 278.533C321.322 275.828 321.322 273.102 321.605 270.398C322.127 267.912 322.976 265.507 324.13 263.245C324.654 262.169 325.264 261.137 325.953 260.159C323.548 261.485 321.408 263.245 319.642 265.349C319.099 265.553 318.501 265.553 317.959 265.349C317.461 265.531 316.914 265.531 316.416 265.349C314.65 263.245 312.51 261.485 310.104 260.159C311.367 261.141 312.068 262.123 313.33 263.245Z" fill="#F0F8FF"/>
<path d="M295.519 265.075C296.347 265.753 297.395 266.103 298.464 266.056H301.971C304.285 266.111 306.55 266.737 308.563 267.88C307.562 265.576 306.134 263.482 304.355 261.709C303.159 259.741 301.4 258.177 299.306 257.22H296.781C295.945 257.087 295.093 257.087 294.257 257.22C291.986 257.794 289.844 258.793 287.945 260.166C290.824 261.177 293.42 262.86 295.519 265.075Z" fill="#F0F8FF"/>
<path d="M290.468 272.927C291.154 271.575 292.054 270.344 293.133 269.28C290.85 267.249 287.914 266.104 284.858 266.054C284.049 266.047 283.299 266.476 282.894 267.176C280.351 270.843 278.981 275.196 278.967 279.659C281.189 277.895 283.777 276.65 286.541 276.012C288.243 275.617 289.681 274.487 290.468 272.927Z" fill="#F0F8FF"/>
<path d="M289.346 298.032C289.105 295.362 289.489 292.673 290.468 290.178C291.096 288.895 291.096 287.394 290.468 286.11C289.511 284.484 288.936 282.662 288.785 280.781C286.467 281.216 284.296 282.229 282.473 283.726C281.547 284.41 280.899 285.407 280.65 286.531C280.296 287.625 280.296 288.803 280.65 289.897C282.52 293.601 285.386 296.709 288.925 298.874L289.346 298.032Z" fill="#F0F8FF"/>
<path d="M345.731 354.552C340.458 348.521 336.323 341.582 333.528 334.075C330.56 326.33 329.038 318.105 329.04 309.811C328.97 308.503 328.97 307.192 329.04 305.884C328.448 305.821 327.981 305.353 327.918 304.762C327.918 303.057 329.3 301.676 331.004 301.676H341.383C343.18 301.425 344.572 299.976 344.749 298.17C344.956 295.925 344.619 293.664 343.767 291.578C341.799 292.688 339.575 293.268 337.315 293.261C335.331 293.251 333.371 292.821 331.565 291.998C331.413 292.922 331.129 293.82 330.723 294.663L324.272 308.689C323.663 309.993 322.344 310.817 320.906 310.792C319.507 310.797 318.239 309.971 317.68 308.689L311.228 294.663C310.822 293.82 310.538 292.922 310.386 291.998C308.58 292.821 306.621 293.251 304.636 293.261C302.376 293.268 300.153 292.688 298.184 291.578C297.332 293.664 296.995 295.925 297.203 298.17C297.38 299.976 298.771 301.425 300.569 301.676H310.947C312.652 301.676 314.033 303.057 314.033 304.762C313.97 305.353 313.503 305.821 312.911 305.884H296.501C295.778 305.88 295.171 306.427 295.099 307.146V310.652C294.957 328.41 302.286 345.41 315.295 357.497C319.224 361.275 323.662 364.485 328.479 367.035C328.426 366.615 328.426 366.191 328.479 365.772C328.831 364.297 328.831 362.76 328.479 361.284C328.214 359.784 327.477 358.409 326.375 357.357C323.391 354.055 320.715 350.487 318.381 346.698V345.716C318.255 345.45 318.255 345.141 318.381 344.874C318.885 344.73 319.42 344.73 319.924 344.874C320.946 344.895 321.891 345.42 322.448 346.277C325.452 350.919 329.034 355.161 333.108 358.9C334.838 360.505 336.665 362.004 338.578 363.388L343.627 366.754L344.468 364.37C344.819 362.989 344.819 361.543 344.468 360.162C344.209 358.76 343.58 357.452 342.645 356.375L345.731 354.552Z" fill="#F0F8FF"/>
<path d="M352.741 361.565C351.734 364.774 350.515 367.914 349.095 370.962C353.392 372.89 357.793 374.576 362.279 376.012C362.551 376.108 362.848 376.108 363.12 376.012L364.943 372.926L365.785 371.523C366.337 370.931 366.337 370.012 365.785 369.42C361.19 367.236 356.821 364.605 352.741 361.565Z" fill="#F0F8FF"/>
<path d="M383.457 369.419C382.741 365.99 380.3 363.177 377.005 361.986C373.844 360.697 370.795 359.149 367.889 357.357C362.986 354.371 358.585 350.632 354.845 346.277C350.091 340.698 346.427 334.275 344.046 327.343C343.98 327.066 343.98 326.778 344.046 326.501H344.887C346.184 326.472 347.361 327.256 347.832 328.465C349.989 334.269 353.172 339.637 357.229 344.314C360.707 348.359 364.773 351.858 369.291 354.693C372.63 356.666 376.153 358.31 379.81 359.601V356.796C379.187 353.667 377.245 350.958 374.481 349.363C370.137 346.855 366.248 343.631 362.98 339.826C358.313 334.488 355.037 328.08 353.443 321.172C353.316 320.905 353.316 320.596 353.443 320.33C354.831 320.29 356.058 321.225 356.388 322.574C357.96 328.157 360.737 333.328 364.523 337.722C367.648 341.26 371.346 344.247 375.462 346.558H376.164C374.802 338.749 372.832 331.058 370.273 323.556C368.748 319.144 366.573 314.984 363.821 311.214C361.153 307.642 357.934 304.518 354.284 301.957C355.257 301.46 355.73 300.335 355.406 299.292C354.91 299.097 354.359 299.097 353.863 299.292C351.603 301.125 349.04 302.549 346.29 303.5C343.474 304.386 340.545 304.859 337.594 304.902H334.368C333.671 304.902 333.106 305.467 333.106 306.165C333.036 307.192 333.036 308.223 333.106 309.25C333.144 324.677 338.661 339.59 348.674 351.326C357.729 361.924 369.904 369.387 383.457 372.645C383.607 371.575 383.607 370.489 383.457 369.419Z" fill="#F0F8FF"/>
<path d="M336.472 366.332L337.174 364.649L334.649 362.545L333.948 364.508C334.786 365.104 335.678 365.621 336.613 366.051L336.472 366.332Z" fill="#F0F8FF"/>
<path d="M336.332 269.561C331.142 269.561 326.935 273.768 326.935 278.958C326.935 284.147 331.142 288.355 336.332 288.355C341.522 288.355 345.729 284.147 345.729 278.958C345.729 273.768 341.522 269.561 336.332 269.561ZM336.332 285.409C332.901 285.333 330.16 282.529 330.161 279.098C330.065 276.343 331.769 273.844 334.369 272.927L336.332 285.409ZM334.369 273.768C333.525 274.683 333.072 275.891 333.106 277.134C333.306 279.681 335.328 281.704 337.875 281.903C339.119 281.937 340.327 281.484 341.241 280.641L334.369 273.768ZM342.083 280.641C341.291 283.33 338.854 285.2 336.052 285.269L342.083 280.641Z" fill="#F0F8FF"/>
<path d="M302.251 269.561C297.061 269.561 292.854 273.768 292.854 278.958C292.854 284.147 297.061 288.355 302.251 288.355C307.441 288.355 311.648 284.147 311.648 278.958C311.648 273.768 307.441 269.561 302.251 269.561ZM302.251 285.409C298.797 285.335 296.014 282.552 295.94 279.098C295.991 276.345 297.713 273.901 300.287 272.927L302.251 285.409ZM300.287 273.768C299.444 274.683 298.991 275.891 299.025 277.134C299.224 279.681 301.247 281.704 303.794 281.903C305.033 281.909 306.231 281.46 307.16 280.641C307.16 280.641 308.142 280.641 307.16 280.641C306.566 283.062 304.574 284.888 302.111 285.269L300.287 273.768Z" fill="#F0F8FF"/>
<path d="M208.982 411.495L45.3052 575.312C50.2141 584.289 55.5437 592.984 61.2942 601.54L67.1849 609.534L208.982 467.597L350.92 609.534L356.67 601.54C362.498 593.111 367.836 584.354 372.659 575.312L208.982 411.495Z" fill="#F0F8FF"/>
<path d="M208.98 327.343L21.3193 515.143C24.9148 529.506 29.6036 543.572 35.3448 557.22L208.98 383.445L381.913 556.518C387.939 542.894 392.909 528.827 396.78 514.442L208.98 327.343Z" fill="#F0F8FF"/>
</svg>
