<svg width="962" height="250" viewBox="0 0 962 250" fill="none" xmlns="http://www.w3.org/2000/svg">
<path d="M940.939 223.309L941.386 78.291C941.386 55.1635 935.895 36.4806 924.93 22.2424C913.93 7.70915 896.728 0.442519 873.309 0.442519C860.552 0.442519 839.642 19.8512 810.58 58.6687C807.606 40.8748 800.618 26.7879 789.616 16.4082C778.979 5.77216 763.722 0.450282 743.845 0.442519C730.21 0.442519 707.818 21.7921 676.668 64.4913H676.225C676.52 60.9279 676.668 56.1844 676.668 50.2609C676.668 32.1641 673.561 19.4088 667.35 11.9946C661.395 4.59599 653.083 0.892798 642.415 0.885035C634.725 0.973289 627.256 3.46538 621.055 8.01192C613.829 13.1351 607.384 19.2776 601.919 26.2483C595.988 33.3597 588.13 43.887 578.346 57.8303L576.984 59.7633C576.491 50.7913 574.851 41.9192 572.104 33.3636C568.763 22.9605 561.595 14.2149 552.049 8.89693C542.282 2.96566 528.352 0 510.261 0C502.543 0 490.679 2.51925 474.668 7.55776C458.946 12.6118 440.87 24.0319 420.442 41.8181C408.493 52.0348 397.351 65.0425 387.017 80.8412C384.872 73.9868 382.145 67.3285 378.864 60.9396C369.726 42.6391 355.515 27.3542 337.926 16.9089C320.386 5.93131 300.195 0.442519 277.352 0.442519C267.864 0.442519 254.07 4.2971 235.972 12.0062C225.744 16.2969 216.232 22.1246 207.764 29.2878C207.204 29.2878 206.599 29.3576 205.993 29.3576C202.126 29.3576 198.132 27.8787 193.975 24.9092C188.831 21.0887 183.948 16.9299 179.358 12.4604C176.24 9.61377 172.971 6.93915 169.563 4.44848C166.263 1.77784 163.576 0.442519 161.504 0.442519C158.538 0.442519 153.937 4.2971 147.702 12.0062C141.778 19.7309 133.326 31.2985 122.347 46.709L110.782 62.7212H107.218C107.521 59.7633 107.661 55.4546 107.661 49.8183C107.661 31.7372 104.555 19.1332 98.3439 12.0062C92.4044 4.59987 84.0807 0.892798 73.3736 0.885035C65.6961 0.980553 58.2404 3.47228 52.0487 8.01192C44.8268 13.1354 38.3853 19.2781 32.9249 26.2483C26.9852 33.3675 19.116 43.8948 9.31728 57.8303L0 71.1757L1.78193 73.365L35.1495 56.9453V223.309L14.1855 240.661V243.385H133.936V240.718L113.449 223.763V72.9575C114.549 70.1283 116.213 67.5528 118.341 65.388C120.67 63.3152 122.639 62.2788 124.164 62.2788C127.518 62.3168 130.777 63.4041 133.482 65.388C137.139 68.0603 140.563 71.0366 143.719 74.285C147.17 77.8293 150.889 81.1035 154.841 84.0786C158.201 86.0986 162.044 87.1729 165.964 87.1879C166.779 87.1879 167.595 87.1879 168.41 87.0598C164.673 101.025 162.87 115.436 163.053 129.891C162.864 150.766 167.747 171.375 177.284 189.946C186.517 208.046 200.524 223.276 217.791 233.988C235.3 244.662 255.488 250 278.354 250C287.834 250 301.624 246.293 319.723 238.879C338.117 231.169 354.875 217.825 370.001 198.842C370.257 198.528 370.502 198.19 370.758 197.853C370.7 199.018 370.665 200.287 370.665 201.521C370.665 216.341 375.261 228.053 384.454 236.654C393.95 244.954 406.408 249.107 421.828 249.115C439.911 249.115 454.889 243.479 466.761 232.206C478.632 220.933 488.816 205.662 497.31 186.394H499.639C499.336 189.352 499.196 193.661 499.196 199.296C499.196 217.386 502.162 230.137 508.095 237.551C514.306 244.958 522.758 248.665 533.449 248.673C544.141 248.68 553.928 244.232 562.811 235.327C571.708 226.43 583.13 211.896 597.075 191.727L604.203 181.677V223.309L583.239 240.661V243.385H702.919V240.718L682.49 223.309V69.8714C689.603 59.7789 698.35 54.7326 708.731 54.7326C724.756 54.7326 732.765 64.371 732.758 83.6477V223.309L712.295 240.661V243.385H831.94V240.718L810.976 223.368L811.873 78.3492C811.925 75.6751 811.777 73.0009 811.431 70.3489C819.171 59.9381 828.085 54.7326 838.171 54.7326C854.476 54.7326 862.629 64.371 862.629 83.6477V223.309L841.665 240.661V243.385H961.403V240.718L940.939 223.309ZM317.836 228.246C315.643 228.743 313.409 229.039 311.162 229.132C300.494 229.132 289.523 221.124 278.249 205.108C267.262 188.804 256.139 164.485 244.882 132.15C232.715 96.5623 226.632 69.13 226.632 49.8532C226.632 30.5765 232.715 20.9459 244.882 20.9614C265.348 20.9614 286.999 53.2886 309.834 117.943C322.591 155.309 328.966 183.188 328.958 201.579C328.958 216.368 325.251 225.258 317.836 228.246ZM496.029 171.302C491.882 179.313 486.991 185.392 481.354 189.538C475.717 193.419 470.379 195.361 465.339 195.361C460.588 195.361 456.139 193.419 451.993 189.538C447.839 185.392 445.762 179.182 445.762 170.905C445.762 161.108 449.617 151.322 457.327 141.548C465.34 131.75 478.539 120.629 496.925 108.184L496.029 171.302ZM496.925 98.3439L448.01 119.702C424.274 130.671 405.438 142.386 391.501 154.846C390.825 155.453 390.173 156.069 389.52 156.698C391.95 145.269 393.121 133.61 393.015 121.925C393.015 119.224 392.945 116.549 392.805 113.902L449.757 97.8202C444.415 80.9422 441.744 66.5797 441.744 54.7326C441.744 44.9351 443.685 37.6685 447.568 32.9327C449.423 30.6118 451.797 28.7588 454.5 27.523C457.203 26.2872 460.158 25.703 463.127 25.8175C473.516 25.8175 481.824 32.4903 488.051 45.8357C494.224 58.8705 497.178 76.3618 496.914 98.3088L496.925 98.3439ZM604.156 176.192L572.116 192.659V185.986L576.111 107.241C577.011 95.0833 577.458 83.5197 577.45 72.5498C577.45 71.7347 577.45 70.966 577.45 70.2208L604.237 57.0268L604.156 176.192Z" fill="black"/>
</svg>
