<svg width="442" height="127" viewBox="0 0 442 127" fill="none" xmlns="http://www.w3.org/2000/svg">
<g clip-path="url(#clip0_0_3)">
<path d="M95.0155 23.9174C94.9428 23.2632 94.3612 22.9724 93.925 22.8997C93.4888 22.827 84.7651 22.7543 84.7651 22.7543C84.7651 22.7543 77.4227 15.6299 76.6957 14.903C75.9687 14.176 74.5875 14.3941 74.0059 14.5395C74.0059 14.5395 72.6247 14.9757 70.2984 15.7026C69.9349 14.4668 69.3533 12.9401 68.5536 11.4135C65.9365 6.39737 62.1562 3.78027 57.5036 3.78027C57.2128 3.78027 56.8493 3.78027 56.5586 3.85296C56.4132 3.70757 56.2678 3.56217 56.1224 3.34408C54.0868 1.16316 51.5424 0.145397 48.4891 0.218094C42.528 0.363489 36.6395 4.65263 31.7687 12.3586C28.352 17.7382 25.8076 24.499 25.0806 29.7332C18.247 31.8415 13.449 33.2954 13.3763 33.3681C9.95954 34.4586 9.81414 34.5313 9.37796 37.8026C9.01447 40.2016 0 110.064 0 110.064L75.678 123.149L108.464 115.007C108.464 115.007 95.0882 24.499 95.0155 23.9174ZM66.5181 16.8658C64.7734 17.3747 62.8105 18.029 60.6296 18.6832C60.5569 15.7026 60.1934 11.4862 58.8122 7.85132C63.3921 8.72369 65.573 13.8125 66.5181 16.8658ZM56.7039 19.9191C52.7056 21.1549 48.4164 22.4635 44.0546 23.8447C45.2905 19.1921 47.6168 14.5395 50.452 11.4862C51.5424 10.323 52.9964 9.08717 54.7411 8.3602C56.4132 11.777 56.7039 16.6477 56.7039 19.9191ZM48.5618 4.21645C49.9431 4.21645 51.1062 4.50724 52.124 5.16152C50.5247 5.96119 48.9253 7.19704 47.4714 8.79638C43.6911 12.8674 40.7832 19.1194 39.6201 25.226C35.9852 26.3165 32.4957 27.4069 29.2243 28.4247C31.4053 18.8286 39.402 4.50724 48.5618 4.21645Z" fill="black"/>
<path d="M93.925 22.8997C93.4888 22.827 84.7651 22.7543 84.7651 22.7543C84.7651 22.7543 77.4227 15.6299 76.6957 14.903C76.4049 14.6122 76.0414 14.4668 75.6779 14.4668V123.149L108.464 115.007C108.464 115.007 95.0881 24.5717 95.0154 23.9174C94.8701 23.2632 94.3612 22.9724 93.925 22.8997Z" fill="black"/>
<path d="M57.5036 39.7655L53.7234 54.0141C53.7234 54.0141 49.5069 52.0513 44.4181 52.4148C37.003 52.851 36.9303 57.5036 37.003 58.7395C37.4392 65.1368 54.1595 66.5181 55.1046 81.4211C55.8316 93.198 48.8526 101.195 38.8204 101.849C26.7526 102.576 20.1372 95.5243 20.1372 95.5243L22.6816 84.6924C22.6816 84.6924 29.3697 89.7085 34.6767 89.4178C38.1661 89.1997 39.402 86.3645 39.2566 84.3289C38.7477 76.0414 25.0806 76.4776 24.2082 62.8832C23.4813 51.397 31.0418 39.7655 47.6895 38.675C54.2322 38.0934 57.5036 39.7655 57.5036 39.7655Z" fill="#F0F8FF"/>
<path d="M152.883 70.153C149.102 68.1174 147.139 66.3727 147.139 63.9737C147.139 60.9204 149.829 58.9576 154.118 58.9576C159.062 58.9576 163.424 60.9931 163.424 60.9931L166.913 50.3793C166.913 50.3793 163.714 47.9076 154.337 47.9076C141.251 47.9076 132.164 55.3954 132.164 65.9365C132.164 71.8977 136.38 76.4776 142.051 79.749C146.631 82.3661 148.23 84.1836 148.23 86.9461C148.23 89.7813 145.976 92.0349 141.687 92.0349C135.363 92.0349 129.401 88.7635 129.401 88.7635L125.694 99.3773C125.694 99.3773 131.219 103.085 140.451 103.085C153.9 103.085 163.569 96.4694 163.569 84.547C163.642 78.077 158.771 73.497 152.883 70.153ZM206.533 47.7622C199.918 47.7622 194.684 50.8882 190.685 55.6862L190.467 55.6135L196.21 25.5168H181.235L166.695 102.067H181.671L186.687 75.8961C188.65 66.0092 193.739 59.9026 198.537 59.9026C201.881 59.9026 203.189 62.1563 203.189 65.4276C203.189 67.4632 202.971 70.0076 202.535 72.0431L196.864 101.994H211.84L217.729 71.0253C218.383 67.7539 218.819 63.8283 218.819 61.2839C218.819 52.9237 214.312 47.7622 206.533 47.7622ZM252.696 47.7622C234.667 47.7622 222.745 64.0464 222.745 82.2207C222.745 93.8523 229.942 103.158 243.391 103.158C261.056 103.158 273.051 87.3095 273.051 68.699C272.979 58.0125 266.654 47.7622 252.696 47.7622ZM245.281 91.6714C240.192 91.6714 238.011 87.3095 238.011 81.9299C238.011 73.3516 242.446 59.3211 250.588 59.3211C255.895 59.3211 257.639 63.901 257.639 68.3355C257.639 77.5681 253.205 91.6714 245.281 91.6714ZM311.29 47.7622C301.185 47.7622 295.442 56.6313 295.442 56.6313H295.224L296.096 48.5618H282.865C282.211 54.0141 281.048 62.2289 279.812 68.4082L269.416 123.222H284.392L288.536 101.049H288.827C288.827 101.049 291.88 103.012 297.623 103.012C315.216 103.012 326.702 84.9832 326.702 66.7362C326.775 56.7766 322.267 47.7622 311.29 47.7622ZM296.969 91.8895C293.043 91.8895 290.789 89.7086 290.789 89.7086L293.261 75.678C295.006 66.3727 299.877 60.1207 305.111 60.1207C309.691 60.1207 311.072 64.3372 311.072 68.4082C311.072 78.077 305.329 91.8895 296.969 91.8895ZM348.148 26.3164C343.35 26.3164 339.569 30.0967 339.569 35.0401C339.569 39.4747 342.405 42.528 346.621 42.528H346.839C351.492 42.528 355.563 39.402 355.636 33.8043C355.636 29.4424 352.728 26.3164 348.148 26.3164ZM327.211 102.067H342.187L352.364 48.998H337.243L327.211 102.067ZM390.458 48.8526H380.062L380.571 46.3809C381.443 41.2921 384.496 36.7122 389.44 36.7122C392.13 36.7122 394.238 37.4391 394.238 37.4391L397.146 25.7349C397.146 25.7349 394.529 24.4263 389.004 24.4263C383.697 24.4263 378.39 25.953 374.319 29.4424C369.23 33.8043 366.831 40.0563 365.595 46.3809L365.159 48.8526H358.18L355.999 60.1207H362.978L355.054 102.067H370.03L377.954 60.1207H388.277L390.458 48.8526ZM426.515 48.998C426.515 48.998 417.138 72.6247 412.921 85.4921H412.703C412.412 81.3484 408.995 48.998 408.995 48.998H393.293L402.307 97.778C402.525 98.8684 402.38 99.5227 402.016 100.25C400.272 103.594 397.364 106.865 393.874 109.264C391.039 111.3 387.913 112.608 385.369 113.481L389.513 126.203C392.566 125.548 398.818 123.077 404.197 118.061C411.031 111.663 417.356 101.776 423.826 88.3273L442.145 48.998H426.515Z" fill="black"/>
</g>
<defs>
<clipPath id="clip0_0_3">
<rect width="442" height="126.275" fill="white"/>
</clipPath>
</defs>
</svg>
