<svg width="810" height="250" viewBox="0 0 810 250" fill="none" xmlns="http://www.w3.org/2000/svg">
<path d="M809.076 111.53C808.539 108.78 806.985 103.464 803.635 107.285C794.844 117.326 794.899 120.962 789.014 132.996C786.799 137.213 784.118 141.17 781.019 144.791C780.056 145.953 771.284 155.865 769.914 151.749C766.564 140.896 767.934 130.154 769.267 119.079C770.275 112.649 771.886 106.327 774.078 100.197C776.799 91.6509 779.279 83.0496 781.648 74.356C787.626 52.4467 793.16 30.4451 799.323 8.59122C800.081 5.91485 799.434 3.9583 796.898 2.90621C793.907 1.49686 790.683 0.64011 787.385 0.377515C782.314 0.192938 780.464 1.37426 779.038 6.17326C775.541 18.0785 772.209 30.0575 768.674 41.9812C766.485 49.6934 764.718 57.5188 763.381 65.4225C761.938 64.2597 760.92 63.3922 759.846 62.58C750.704 55.7137 741.647 55.7999 732.677 62.8384C709.595 81.1031 694.371 107.463 690.11 136.54C689.518 140.915 689.573 145.492 687.926 149.645C684.769 157.506 679.553 164.378 672.824 169.542C672.159 170.127 671.367 170.55 670.511 170.779C662.349 172.366 666.328 149.331 666.92 145.861C669.067 133.052 673.49 120.814 677.877 108.65C680.278 101.248 683.203 94.0253 686.631 87.0365C688.926 82.7358 679.394 79.2473 676.6 78.0476C671.966 75.9126 666.735 75.443 661.794 76.7186C661.109 76.9032 660.239 77.42 659.758 77.1801C658.832 76.7002 659.332 75.685 659.499 74.8729C660.468 70.0316 662.435 65.4435 665.273 61.3987C666.828 59.1838 669.992 56.8766 668.604 53.9049C665.662 47.6292 652.614 43.9377 649.097 51.1178C644.471 60.5312 639.64 70.4615 637.845 80.8716C637.123 85.0246 637.419 89.1037 640.195 92.2785C636.494 98.4802 634.069 105.605 631.404 112.231C628.451 119.46 625.051 126.5 621.225 133.31C617.857 139.383 614.674 145.4 609.177 149.922C607.456 151.306 604.606 154.223 602.033 151.934C597.091 147.504 600.589 134.565 603.44 125.022C607.992 109.776 616.654 93.2383 619.282 77.5123C619.541 76.0172 620.004 74.5221 618.727 73.4147C616.635 71.1878 614.322 69.178 611.823 67.4159C608.418 65.4409 606.993 65.7917 605.068 69.1694C603.143 72.5472 601.774 76.6817 598.961 79.8195C598.972 79.2367 599.091 78.6609 599.312 78.1214C601.478 72.4549 602.644 67.3236 596.795 62.5062C591.41 58.0579 585.21 55.6768 578.769 59.4976C572.469 63.3542 566.843 68.211 562.112 73.8761C552.507 85.1169 545.659 98.351 538.645 111.253C532.63 122.328 528.299 134.159 522.451 145.289C521.242 147.544 519.756 149.64 518.028 151.528C517.269 152.358 515.511 154.776 514.326 151.528C509.773 138.367 511.939 124.764 515.492 111.696C524.376 79.0627 532.426 45.9865 542.272 13.6301C545.178 4.0875 544.29 2.72163 534.444 0.70974L533.722 0.562103C527.448 -0.453071 524.912 1.06046 523.154 7.13304C519.268 20.5887 515.344 34.0444 511.642 47.5739C510.088 53.2404 509.033 59.0546 507.682 65.1826C506.238 64.0751 505.202 63.3367 504.147 62.4877C495.263 56.009 486.676 55.7322 478.236 62.1186C470.303 68.0325 463.26 75.0501 457.323 82.9573C445.549 98.3376 437.733 116.361 434.559 135.451C434.193 137.122 433.439 138.684 432.356 140.01C430.672 142.41 429.099 144.883 427.359 147.227C422.796 153.697 417.761 159.824 412.294 165.556C411.332 166.515 410.018 168.103 408.593 167.401C407.168 166.7 408.075 164.743 408.13 163.359C408.5 155.145 411.073 147.356 412.627 139.364C414.196 131.543 416.204 123.815 418.642 116.218C423.232 101.729 427.285 86.6858 432.023 72.0119C434.17 65.3671 432.227 60.199 426.989 55.7137C426.553 55.2813 426.076 54.8919 425.564 54.5509C420.974 52.1145 416.533 49.2536 410.962 52.2622C403.654 55.9368 396.961 60.7187 391.122 66.4377C386.202 71.087 381.665 76.1238 377.556 81.4992C376.223 73.5993 372.244 69.7231 365.082 68.7449C361.547 68.265 358.104 69.6862 357.956 72.2703C357.032 83.7835 355.269 95.2144 352.682 106.472C349.313 123.084 341.281 141.634 327.66 152.617C326.771 153.318 325.957 154.832 324.643 154.167C322.367 153.023 322.792 143.462 322.681 141.247C322.274 118.451 336.839 99.477 340.67 77.623C340.93 76.128 341.411 74.6882 340.208 73.5069C338.089 71.006 335.591 68.8512 332.805 67.1206C330.269 65.8286 328.159 65.7547 326.845 68.8187C325.938 70.9414 324.995 73.0455 323.866 75.0759C322.737 77.1062 321.626 78.7674 320.497 80.6132C322.181 74.3376 324.995 68.7633 318.646 62.8384C297.659 43.384 272.915 88.8084 264.475 102.375C259.552 110.293 256.295 119.134 251.094 126.868C242.895 139.106 234.437 151.214 226.091 163.341C225.147 164.707 224.092 165.962 222.593 167.937C221.93 159.522 222.203 151.06 223.407 142.705C228.499 110.375 235.827 78.4342 245.338 47.1124C246.523 43.2363 247.004 40.763 251.649 40.5046C279.115 38.9911 306.58 37.4037 334.082 36.407C348.425 35.8902 362.935 36.0193 377.167 33.9336L400.746 29.5591C400.746 28.2302 399.395 28.3594 398.488 28.304C395.582 28.1379 392.621 27.4919 389.771 27.5657C379.536 27.8611 369.413 26.2183 359.178 26.2737C346.778 26.2737 334.341 25.48 321.922 25.277C305.95 25.0186 289.978 25.277 274.006 25.4062C267.918 25.4062 261.81 25.7015 255.703 25.9968C252.612 26.126 252.297 25.0186 253.852 22.6375C255.184 20.5333 258.146 16.8603 257.054 14.0732C255.443 10.0125 247.522 9.55101 243.895 8.86807C242.988 8.61379 242.035 8.56472 241.107 8.72438C240.178 8.88404 239.297 9.24841 238.528 9.79096C235.863 12.0797 234.086 21.1424 232.716 24.5571C232.447 25.2415 231.952 25.8138 231.313 26.1796C230.673 26.5454 229.928 26.6828 229.2 26.569C214.061 26.3475 198.977 28.4148 183.838 28.4148C182.154 28.4148 181.284 28.1748 181.321 26.329C181.167 22.6694 180.371 19.065 178.971 15.679C177.12 10.2893 174.418 5.17653 169.032 2.75858C162.406 0.0823225 155.154 -0.666477 148.119 0.598998C131.24 2.94313 115.768 9.29259 100.888 17.3402C92.2227 21.7788 84.4301 27.7373 77.8828 34.9303C70.8499 42.9594 67.8147 52.1699 71.7938 62.3401C79.6965 82.459 101.609 88.8269 120.413 94.7703C137.828 100.308 155.577 104.608 170.753 115.609C176.026 119.237 179.671 124.773 180.914 131.04C185.818 154.573 165.22 178.531 148.433 192.319C136.557 201.938 123.496 210.002 109.568 216.314C98.3469 221.351 86.5313 224.948 74.4034 227.02C49.4183 231.634 12.3663 225.174 19.6027 191.396C21.4535 182.906 25.8212 175.8 31.2624 168.989C55.1001 139.161 92.7998 127.422 129.352 123.546C127.501 120.131 126.78 115.184 123.929 112.471C117.692 106.491 106.44 109.703 99.0738 111.308C88.6132 113.509 78.4412 116.903 68.7586 121.423C49.2875 130.86 31.9264 144.119 17.715 160.406C3.33467 176.593 -6.21519 198.706 4.75974 219.471C14.0135 236.876 33.798 248.504 53.3048 249.778C93.0959 252.381 136.94 231.763 165.719 205.295C173.552 198.201 180.399 190.093 186.077 181.189C194.091 168.361 200.883 154.13 198.885 138.386C196.98 123.795 189.911 110.363 178.952 100.511C168.458 91.0972 155.022 85.1169 141.567 81.3146C125.151 76.7001 108.92 71.772 92.9849 65.644C90.801 64.8134 88.3395 63.6321 87.8398 61.3618C87.6454 60.0559 87.8791 58.7223 88.5061 57.5595C90.616 53.4027 93.5354 49.7069 97.0935 46.6879C112.857 32.1319 132.6 22.5728 153.819 19.2229C156.873 18.743 160.611 18.6691 162.406 21.1978C164.202 23.7265 162.851 27.3073 161.055 29.873C154.763 38.8065 144.232 43.827 136.996 52.0222C131.443 58.1871 133.868 62.4693 136.496 69.1141C138.347 73.9131 142.844 74.9652 146.657 71.4213C152.399 66.4931 157.855 61.2426 162.999 55.6953C165.263 52.848 168.121 50.525 171.374 48.887C174.627 47.249 178.197 46.335 181.839 46.208C195.054 45.2851 208.231 43.7163 221.501 43.2179C227.812 42.9964 227.756 43.0148 226.091 48.9028C217.559 79.155 209.637 109.573 205.492 140.822C204.067 151.546 202.327 162.233 202.771 173.179C203.012 179.436 205.418 184.05 210.933 186.745C216.892 189.643 223.981 190.732 229.959 187.28C237.362 182.998 239.749 174.637 245.801 169.339C249.503 173.031 251.816 177.239 256.72 179.916C261.268 182.333 266.378 183.498 271.526 183.293C278.818 183.09 285.389 179.159 290.478 174.175C293.169 171.529 295.536 168.573 297.529 165.371C298.455 163.894 300.417 157.988 302.508 158.099C303.655 158.099 303.322 159.446 303.544 160.184C307.542 173.105 326.993 174.951 337.061 168.878C340.337 166.885 341.392 167.955 344.279 170.355C347.167 172.754 350.627 174.655 354.144 173.825C358.253 172.846 358.919 168.62 359.344 164.946C359.63 162.038 360.112 159.152 360.788 156.308C365.529 137.882 373.471 120.428 384.255 104.737C389.365 97.3511 394.928 90.2868 400.912 83.5849C403.139 81.058 405.669 78.8139 408.445 76.9032C408.671 77.1824 408.811 77.5215 408.847 77.8789C408.884 78.2362 408.814 78.5964 408.648 78.9151C404.373 93.5151 399.802 108.041 395.693 122.734C391.584 137.426 387.217 152.266 387.698 167.863C388.028 172.708 390.036 177.288 393.379 180.82C396.721 184.352 401.189 186.616 406.02 187.225C417.439 188.609 427.285 179.491 432.338 170.133C434.707 165.759 435.41 165.832 438.853 169.266C440.124 170.402 441.472 171.451 442.887 172.403C450.531 178.051 461.654 176.778 470.093 173.806C479.513 170.465 486.491 162.732 491.506 154.315C492.161 152.748 493.261 151.407 494.671 150.457C493.32 151.122 497.059 158.08 497.484 158.948C499.133 162.838 502.242 165.931 506.146 167.567C510.032 169.099 513.16 168.287 517.047 167.678C519.175 167.328 523.839 166.755 524.616 169.524C527.651 180.377 540.107 183.441 550.046 182.444C563.408 181.042 572.884 171.517 578.936 160.111C579.343 159.335 579.787 158.375 580.638 158.357C581.989 158.357 581.841 159.668 582.119 160.517C583.97 166.442 589.651 169.745 595.407 171.093C608.048 174.157 617.08 169.745 624.649 159.723C636.272 144.366 643.342 125.705 648.968 107.414C649.828 104.757 650.527 102.051 651.059 99.3108C654.22 99.9378 657.5 99.4208 660.313 97.8527C660.443 97.8527 660.72 98.0373 661.146 98.2403C658.795 105.07 655.372 111.474 652.947 118.322C649.182 128.099 646.302 138.193 644.341 148.482C643.305 154.924 642.749 161.052 645.211 167.291C646.972 171.689 649.796 175.585 653.432 178.631C657.068 181.678 661.402 183.78 666.05 184.752C676.655 186.597 686.668 180.839 692.757 172.625C693.978 170.982 695.496 170.17 697.421 171.684C703.509 176.501 713.059 178.31 720.129 177.627C732.233 176.446 739.969 164.596 746.243 155.478C747.539 153.632 748.538 151.122 750.611 149.94C750.389 150.07 753.443 159.594 753.794 160.535C754.244 161.987 754.989 163.332 755.983 164.484C756.976 165.637 758.197 166.573 759.569 167.235C769.192 171.444 779.594 167.346 786.96 160.701C797.916 150.808 805.615 133.125 808.91 119.024C809.51 116.567 809.566 114.01 809.076 111.53V111.53ZM307.82 106.177C299.898 121.22 291.607 136.042 282.575 150.476C278.467 156.991 274.099 163.396 267.307 167.494C266.511 167.974 265.697 168.97 264.716 168.546C263.439 167.992 263.994 166.608 264.012 165.592C264.152 147.254 268.885 129.241 277.782 113.191C282.627 104.033 288.308 95.3395 294.753 87.2211C295.576 85.7543 296.884 84.6187 298.455 84.0094C295.272 91.0233 300.509 93.1275 304.766 95.6008C311.114 99.3108 311.262 99.6431 307.82 106.177ZM497.762 103.925C492.21 117.418 484.807 129.766 477.145 142.188C472.585 149.975 466.784 156.97 459.97 162.898C455.546 166.589 453.918 165.943 452.77 160.184C447.218 132.092 461.728 100.714 478.329 78.8228C481.068 75.1312 483.659 70.7014 487.694 68.4127C493.783 64.9795 491.395 78.103 490.822 80.7055C490.155 84.2863 489.538 87.8794 488.971 91.4848C488.397 95.1763 490.488 96.9113 493.727 97.6127C494.656 97.8182 495.557 98.1342 496.411 98.5541C499.131 99.9199 498.872 101.267 497.762 103.962V103.925ZM586.598 105.623C577.796 122.959 568.015 139.783 557.3 156.013C554.247 160.751 550.184 164.759 545.4 167.752C543.42 168.952 542.161 169.413 542.217 166.183C542.337 156.466 543.724 146.805 546.344 137.444C552.1 117.473 563.537 99.9199 576.123 83.7141C576.123 83.7141 576.345 83.7141 576.789 83.511C575.234 90.5988 575.327 90.8019 581.693 94.7149C582.212 95.0287 582.73 95.3425 583.266 95.6378C589.651 99.1817 589.892 99.2924 586.468 105.66L586.598 105.623ZM752.813 105.051C745.892 120.933 737.339 136.057 727.292 150.18C724.25 155.054 720.452 159.415 716.039 163.101C714.871 164.168 713.38 164.817 711.801 164.946C707.155 164.946 705.934 154.296 706.008 151.288C706.304 139.161 709.191 128.345 712.93 116.883C716.668 105.42 724.127 94.4564 730.919 84.2309C732.159 82.3851 746.114 65.6624 746.854 69.354C747.798 74.0422 746.854 78.5829 745.91 83.0681C745.256 85.7937 744.805 88.5637 744.559 91.3556C744.374 95.3424 745.41 96.7637 749.408 97.6681C750.113 97.7853 750.807 97.9644 751.481 98.2034C755.145 99.883 753.979 102.135 752.758 105.088L752.813 105.051Z" fill="black"/>
</svg>
