<svg width="267" height="51" viewBox="0 0 267 51" fill="none" xmlns="http://www.w3.org/2000/svg">
<g clip-path="url(#clip0_1_15)">
<path d="M261.026 16.0284C261.026 15.4377 261.202 14.8603 261.53 14.3691C261.858 13.8779 262.324 13.4951 262.87 13.269C263.416 13.043 264.017 12.9838 264.596 13.0991C265.175 13.2143 265.707 13.4988 266.125 13.9165C266.543 14.3342 266.827 14.8664 266.943 15.4458C267.058 16.0251 266.999 16.6257 266.773 17.1714C266.547 17.7172 266.164 18.1837 265.673 18.5119C265.181 18.8401 264.604 19.0152 264.013 19.0152C263.619 19.0226 263.227 18.9503 262.862 18.8028C262.496 18.6553 262.164 18.4356 261.885 18.1567C261.606 17.8779 261.386 17.5457 261.239 17.18C261.091 16.8144 261.019 16.4227 261.026 16.0284ZM266.502 16.0284C266.502 15.5362 266.356 15.055 266.083 14.6458C265.809 14.2365 265.42 13.9175 264.966 13.7291C264.511 13.5408 264.01 13.4915 263.528 13.5875C263.045 13.6835 262.601 13.9206 262.253 14.2686C261.905 14.6167 261.668 15.0601 261.572 15.5429C261.476 16.0257 261.526 16.5261 261.714 16.9809C261.902 17.4356 262.221 17.8243 262.631 18.0978C263.04 18.3712 263.521 18.5172 264.013 18.5172C264.343 18.5289 264.672 18.4725 264.979 18.3516C265.287 18.2307 265.566 18.0478 265.799 17.8143C266.033 17.5808 266.215 17.3018 266.336 16.9945C266.457 16.6873 266.514 16.3584 266.502 16.0284ZM263.017 17.7209C262.917 17.7209 262.917 17.7209 262.917 17.621V14.5344C262.917 14.4345 262.917 14.4345 263.017 14.4345H264.212C264.351 14.4164 264.493 14.4289 264.628 14.4712C264.762 14.5134 264.885 14.5844 264.99 14.6791C265.094 14.7739 265.176 14.8902 265.231 15.02C265.285 15.1497 265.311 15.2898 265.306 15.4306C265.321 15.6394 265.257 15.8462 265.129 16.0116C265.001 16.1769 264.816 16.2891 264.61 16.3267L265.306 17.621C265.406 17.7209 265.306 17.8208 265.206 17.8208H264.908C264.808 17.8208 264.808 17.7209 264.708 17.7209L264.012 16.4266H263.321V17.621C263.321 17.6343 263.319 17.6474 263.314 17.6597C263.309 17.672 263.302 17.6831 263.292 17.6925C263.283 17.7018 263.272 17.7092 263.26 17.7141C263.247 17.719 263.234 17.7213 263.221 17.7209H263.021H263.017ZM264.805 15.3361C264.805 15.0378 264.606 14.8381 264.208 14.8381H263.411V15.8341H264.208C264.61 15.8287 264.805 15.6303 264.805 15.3361Z" fill="black"/>
<path d="M85.715 38.4273C85.4167 38.4273 85.3101 38.3274 85.2169 38.0224L81.1356 23.5811H81.0357L76.9544 38.0224C76.8545 38.3206 76.7546 38.4273 76.4564 38.4273H71.6772C71.379 38.4273 71.2723 38.3274 71.1792 38.0224L64.211 12.9391C64.211 12.7394 64.211 12.5342 64.5092 12.5342H70.7811C70.9008 12.5221 71.0203 12.5579 71.1137 12.6338C71.207 12.7097 71.2665 12.8195 71.2791 12.9391L74.5642 27.9742H74.664L78.6522 12.9391C78.7521 12.6408 78.852 12.5342 79.1503 12.5342H83.0332C83.3315 12.5342 83.4381 12.6341 83.5312 12.9391L87.7151 27.9715H87.815L90.9907 12.9391C91.0033 12.8195 91.0628 12.7097 91.1562 12.6338C91.2495 12.5579 91.3691 12.5221 91.4888 12.5342H97.7606C97.9603 12.5342 98.0589 12.734 98.0589 12.9391L91.0906 38.0291C90.9907 38.3274 90.8909 38.434 90.5926 38.434H85.715V38.4273ZM103.038 38.4273C102.932 38.4217 102.832 38.3773 102.758 38.3025C102.683 38.2278 102.638 38.128 102.633 38.0224V12.9391C102.638 12.8335 102.683 12.7337 102.758 12.6589C102.832 12.5842 102.932 12.5397 103.038 12.5342H113.391C119.663 12.5342 122.948 16.1175 122.948 21.0964C122.948 26.0752 119.663 29.7571 113.391 29.7571H109.612C109.412 29.7571 109.412 29.857 109.412 29.9568V37.9198C109.407 38.0254 109.362 38.1252 109.287 38.2C109.213 38.2747 109.113 38.3192 109.007 38.3247H103.036L103.038 38.4273ZM116.278 21.2044C116.278 19.412 115.083 18.3175 112.993 18.3175H109.606C109.407 18.3175 109.407 18.4173 109.407 18.5172V23.8929C109.407 24.0926 109.507 24.0926 109.606 24.0926H112.991C113.402 24.1489 113.821 24.1162 114.218 23.9967C114.615 23.8771 114.982 23.6735 115.293 23.3997C115.605 23.1259 115.854 22.7882 116.024 22.4097C116.193 22.0311 116.28 21.6205 116.276 21.2057L116.278 21.2044ZM131.808 32.0555C131.208 29.9541 130.972 27.7651 131.112 25.584C131.031 23.4045 131.266 21.2248 131.808 19.1124C132.407 17.3151 133.556 15.7517 135.092 14.6438C136.629 13.5359 138.475 12.9398 140.37 12.9398C142.264 12.9398 144.11 13.5359 145.647 14.6438C147.184 15.7517 148.333 17.3151 148.931 19.1124C149.517 21.0805 149.753 23.1362 149.628 25.1858C149.628 25.4841 149.428 25.6839 149.03 25.6839H132.803C132.603 25.6839 132.505 25.8836 132.505 26.0887C132.422 27.9338 132.623 29.7806 133.103 31.5643C133.539 33.1749 134.523 34.583 135.886 35.546C137.249 36.509 138.905 36.9666 140.569 36.8401C141.985 36.8855 143.392 36.5931 144.673 35.9872C145.954 35.3812 147.072 34.479 147.935 33.3553C147.966 33.2931 148.011 33.2394 148.067 33.1988C148.123 33.1581 148.189 33.1317 148.257 33.1219C148.326 33.112 148.396 33.119 148.461 33.1423C148.526 33.1656 148.585 33.2044 148.632 33.2554L148.93 33.5537C148.992 33.5843 149.046 33.6297 149.086 33.6857C149.127 33.7418 149.153 33.807 149.163 33.8756C149.173 33.9441 149.166 34.0141 149.143 34.0793C149.12 34.1446 149.081 34.2032 149.03 34.2501C148.073 35.5607 146.811 36.6177 145.352 37.3291C143.894 38.0404 142.284 38.3845 140.662 38.3314C138.687 38.4766 136.722 37.9302 135.106 36.786C133.489 35.6417 132.321 33.9708 131.801 32.0596L131.808 32.0555ZM147.935 24.291C147.975 24.2955 148.016 24.2909 148.054 24.2775C148.093 24.2641 148.127 24.2423 148.156 24.2136C148.185 24.185 148.207 24.1502 148.22 24.112C148.233 24.0738 148.238 24.033 148.233 23.9927C148.266 22.5428 148.064 21.0971 147.636 19.7116C147.23 18.1417 146.296 16.7596 144.99 15.7985C143.684 14.8374 142.087 14.3561 140.468 14.4359C138.844 14.3362 137.237 14.8098 135.927 15.7741C134.617 16.7383 133.687 18.1319 133.3 19.7116C132.863 21.0955 132.661 22.5424 132.702 23.9927C132.697 24.033 132.702 24.0738 132.715 24.112C132.729 24.1502 132.75 24.185 132.779 24.2136C132.808 24.2423 132.842 24.2641 132.881 24.2775C132.919 24.2909 132.96 24.2955 133 24.291H147.935ZM172.723 37.8307C172.656 37.8349 172.59 37.8248 172.528 37.8013C172.465 37.7777 172.409 37.7412 172.362 37.6941C172.314 37.647 172.278 37.5904 172.254 37.5281C172.231 37.4658 172.221 37.3992 172.225 37.3327V22.7915C172.225 17.0177 169.836 14.529 165.157 14.529C164.157 14.488 163.159 14.6565 162.228 15.0236C161.297 15.3907 160.453 15.9483 159.75 16.6606C159.047 17.373 158.501 18.2244 158.146 19.1603C157.791 20.0961 157.636 21.0958 157.69 22.0951V37.4326C157.695 37.499 157.685 37.5656 157.661 37.6279C157.637 37.6902 157.601 37.7468 157.554 37.7939C157.507 37.841 157.45 37.8776 157.388 37.9011C157.326 37.9247 157.259 37.9347 157.192 37.9306H156.694C156.628 37.9347 156.561 37.9247 156.499 37.9011C156.437 37.8776 156.38 37.841 156.333 37.7939C156.286 37.7468 156.249 37.6902 156.226 37.6279C156.202 37.5656 156.192 37.499 156.196 37.4326V14.1376C156.192 14.0711 156.202 14.0045 156.226 13.9422C156.249 13.8799 156.286 13.8233 156.333 13.7762C156.38 13.7291 156.437 13.6926 156.499 13.669C156.561 13.6455 156.628 13.6354 156.694 13.6396H157.192C157.259 13.6354 157.326 13.6455 157.388 13.669C157.45 13.6926 157.507 13.7291 157.554 13.7762C157.601 13.8233 157.637 13.8799 157.661 13.9422C157.685 14.0045 157.695 14.0711 157.69 14.1376V17.5279H157.79C158.442 16.1184 159.502 14.9374 160.834 14.1386C162.165 13.3397 163.706 12.9599 165.257 13.0484C170.732 13.0484 173.819 16.1351 173.819 22.4069V37.3327C173.823 37.3992 173.813 37.4658 173.789 37.5281C173.766 37.5904 173.729 37.647 173.682 37.6941C173.635 37.7412 173.578 37.7777 173.516 37.8013C173.454 37.8248 173.387 37.8349 173.321 37.8307H172.723ZM181.091 44.1025C180.891 43.8043 180.891 43.5046 181.191 43.4061L181.595 43.1078C181.894 42.9081 182.093 43.008 182.292 43.3076C183.061 44.271 184.051 45.0359 185.177 45.5382C186.303 46.0405 187.533 46.2656 188.763 46.1945C193.343 46.1945 196.33 43.9001 196.33 37.9319V33.8479H196.23C195.035 36.5364 192.945 38.4273 188.664 38.4273C186.866 38.513 185.092 37.9897 183.628 36.9418C182.165 35.894 181.097 34.3831 180.599 32.6534C179.961 30.4224 179.692 28.1018 179.803 25.7837C179.742 23.4677 180.01 21.1546 180.599 18.914C181.097 17.1872 182.162 15.6785 183.623 14.6312C185.083 13.5839 186.854 13.0591 188.649 13.1415C192.93 13.1415 195.02 15.0311 196.215 17.7209H196.315V14.2361C196.311 14.1696 196.321 14.103 196.344 14.0407C196.368 13.9784 196.404 13.9218 196.451 13.8747C196.499 13.8276 196.555 13.7911 196.617 13.7675C196.68 13.744 196.746 13.7339 196.813 13.7381H197.311C197.377 13.7339 197.444 13.744 197.506 13.7675C197.568 13.7911 197.625 13.8276 197.672 13.8747C197.719 13.9218 197.756 13.9784 197.779 14.0407C197.803 14.103 197.813 14.1696 197.809 14.2361V38.0291C197.809 44.6991 194.226 47.6859 188.65 47.6859C187.199 47.7154 185.76 47.4071 184.448 46.7852C183.136 46.1633 181.987 45.2449 181.091 44.1025ZM195.625 32.0569C196.199 29.9843 196.434 27.8327 196.322 25.6852C196.427 23.5379 196.192 21.3874 195.625 19.3135C195.232 17.8446 194.343 16.5567 193.11 15.6678C191.876 14.7789 190.373 14.3437 188.855 14.4359C187.362 14.3357 185.88 14.7575 184.663 15.6293C183.447 16.5011 182.571 17.7686 182.185 19.215C181.59 21.2845 181.321 23.4343 181.389 25.5867C181.321 27.7391 181.59 29.8888 182.185 31.9584C182.583 33.3974 183.462 34.6566 184.676 35.5262C185.89 36.3958 187.365 36.8233 188.855 36.7375C190.361 36.9271 191.884 36.5543 193.132 35.6907C194.381 34.827 195.266 33.5331 195.62 32.0569H195.625ZM206.178 6.07343C206.112 6.07758 206.045 6.06754 205.983 6.04398C205.92 6.02042 205.864 5.98387 205.817 5.93677C205.77 5.88967 205.733 5.83309 205.709 5.77079C205.686 5.70849 205.676 5.64189 205.68 5.57541V3.58467C205.676 3.51819 205.686 3.45159 205.709 3.38929C205.733 3.32698 205.77 3.2704 205.817 3.2233C205.864 3.1762 205.92 3.13966 205.983 3.1161C206.045 3.09254 206.112 3.0825 206.178 3.08665H207.372C207.439 3.0825 207.506 3.09254 207.568 3.1161C207.63 3.13966 207.687 3.1762 207.734 3.2233C207.781 3.2704 207.817 3.32698 207.841 3.38929C207.865 3.45159 207.875 3.51819 207.87 3.58467V5.67528C207.875 5.74176 207.865 5.80836 207.841 5.87067C207.817 5.93297 207.781 5.98955 207.734 6.03665C207.687 6.08375 207.63 6.12029 207.568 6.14385C207.506 6.16741 207.439 6.17745 207.372 6.1733H206.178V6.07343ZM206.583 37.8307C206.516 37.8349 206.45 37.8248 206.388 37.8013C206.325 37.7777 206.269 37.7412 206.222 37.6941C206.174 37.647 206.138 37.5904 206.114 37.5281C206.091 37.4658 206.081 37.3992 206.085 37.3327V14.1376C206.081 14.0711 206.091 14.0045 206.114 13.9422C206.138 13.8799 206.174 13.8233 206.222 13.7762C206.269 13.7291 206.325 13.6926 206.388 13.669C206.45 13.6455 206.516 13.6354 206.583 13.6396H207.081C207.147 13.6354 207.214 13.6455 207.276 13.669C207.339 13.6926 207.395 13.7291 207.442 13.7762C207.489 13.8233 207.526 13.8799 207.55 13.9422C207.573 14.0045 207.583 14.0711 207.579 14.1376V37.3327C207.583 37.3992 207.573 37.4658 207.55 37.5281C207.526 37.5904 207.489 37.647 207.442 37.6941C207.395 37.7412 207.339 37.7777 207.276 37.8013C207.214 37.8248 207.147 37.8349 207.081 37.8307H206.583ZM232.361 37.8307C232.295 37.8349 232.228 37.8248 232.166 37.8013C232.104 37.7777 232.047 37.7412 232 37.6941C231.953 37.647 231.916 37.5904 231.893 37.5281C231.869 37.4658 231.859 37.3992 231.863 37.3327V22.7915C231.863 17.0177 229.474 14.529 224.795 14.529C223.795 14.488 222.798 14.6565 221.867 15.0236C220.935 15.3907 220.091 15.9483 219.388 16.6606C218.685 17.373 218.139 18.2244 217.784 19.1603C217.43 20.0961 217.275 21.0958 217.329 22.0951V37.4326C217.333 37.499 217.323 37.5656 217.299 37.6279C217.276 37.6902 217.239 37.7468 217.192 37.7939C217.145 37.841 217.088 37.8776 217.026 37.9011C216.964 37.9247 216.897 37.9347 216.831 37.9306H216.333C216.266 37.9347 216.2 37.9247 216.137 37.9011C216.075 37.8776 216.019 37.841 215.971 37.7939C215.924 37.7468 215.888 37.6902 215.864 37.6279C215.841 37.5656 215.831 37.499 215.835 37.4326V14.1376C215.831 14.0711 215.841 14.0045 215.864 13.9422C215.888 13.8799 215.924 13.8233 215.971 13.7762C216.019 13.7291 216.075 13.6926 216.137 13.669C216.2 13.6455 216.266 13.6354 216.333 13.6396H216.831C216.897 13.6354 216.964 13.6455 217.026 13.669C217.088 13.6926 217.145 13.7291 217.192 13.7762C217.239 13.8233 217.276 13.8799 217.299 13.9422C217.323 14.0045 217.333 14.0711 217.329 14.1376V17.5279H217.429C218.08 16.1184 219.141 14.9374 220.472 14.1386C221.804 13.3397 223.345 12.9599 224.895 13.0484C230.371 13.0484 233.457 16.1351 233.457 22.4069V37.3327C233.461 37.3992 233.451 37.4658 233.428 37.5281C233.404 37.5904 233.368 37.647 233.32 37.6941C233.273 37.7412 233.217 37.7777 233.155 37.8013C233.092 37.8248 233.026 37.8349 232.959 37.8307H232.361ZM240.226 32.0569C239.625 29.9554 239.389 27.7665 239.529 25.5853C239.449 23.4059 239.683 21.2262 240.226 19.1138C240.824 17.3164 241.973 15.753 243.51 14.6452C245.046 13.5373 246.893 12.9411 248.787 12.9411C250.682 12.9411 252.528 13.5373 254.064 14.6452C255.601 15.753 256.75 17.3164 257.349 19.1138C257.935 21.0818 258.17 23.1375 258.045 25.1872C258.045 25.4855 257.845 25.6852 257.447 25.6852H241.215C241.015 25.6852 240.917 25.8849 240.917 26.0901C240.834 27.9351 241.035 29.782 241.515 31.5656C241.951 33.1763 242.935 34.5843 244.298 35.5473C245.661 36.5103 247.317 36.9679 248.981 36.8414C250.397 36.8868 251.804 36.5945 253.085 35.9885C254.366 35.3825 255.484 34.4804 256.347 33.3566C256.378 33.2945 256.423 33.2408 256.479 33.2001C256.535 33.1594 256.601 33.133 256.669 33.1232C256.738 33.1134 256.808 33.1204 256.873 33.1437C256.938 33.1669 256.997 33.2057 257.044 33.2567L257.342 33.555C257.404 33.5857 257.458 33.631 257.498 33.6871C257.539 33.7432 257.565 33.8083 257.575 33.8769C257.585 33.9455 257.578 34.0154 257.555 34.0807C257.532 34.1459 257.493 34.2045 257.442 34.2514C256.485 35.5621 255.223 36.6191 253.764 37.3304C252.306 38.0418 250.696 38.3859 249.074 38.3328C244.594 38.3328 241.508 36.2422 240.214 32.061L240.226 32.0569ZM256.254 24.2924C256.294 24.2969 256.335 24.2922 256.373 24.2789C256.412 24.2655 256.446 24.2436 256.475 24.215C256.504 24.1863 256.525 24.1516 256.539 24.1134C256.552 24.0751 256.557 24.0344 256.552 23.9941C256.585 22.5442 256.383 21.0985 255.954 19.713C255.549 18.1431 254.615 16.761 253.309 15.7999C252.003 14.8388 250.406 14.3575 248.786 14.4372C247.163 14.3376 245.556 14.8112 244.246 15.7754C242.936 16.7396 242.006 18.1332 241.618 19.713C241.182 21.0968 240.98 22.5437 241.021 23.9941C241.016 24.0344 241.021 24.0751 241.034 24.1134C241.047 24.1516 241.069 24.1863 241.098 24.215C241.127 24.2436 241.161 24.2655 241.2 24.2789C241.238 24.2922 241.279 24.2969 241.319 24.2924H256.254Z" fill="black"/>
<path d="M17.2229 50.7712H33.5537V38.4272L29.5722 34.4458H21.1099L17.2269 38.4272L17.2229 50.7712ZM38.3301 17.2229L34.4471 21.1058V29.668L38.3301 33.5496H50.7739V17.2188L38.3301 17.2229ZM33.5496 0H17.2188V12.4438L21.1045 16.3308H29.5668L33.5483 12.4478L33.5496 0ZM50.7711 50.7712V38.4272L46.8882 34.4458H34.4444V50.7766L50.7711 50.7712ZM3.88294 0L0 3.88294V16.3308H16.3308V0H3.88294ZM34.4458 0V12.4438L38.3301 16.3308H50.7739V0H34.4458ZM25.3856 27.7758C24.9318 27.7758 24.4882 27.6412 24.1109 27.3891C23.7336 27.137 23.4395 26.7787 23.2658 26.3594C23.0922 25.9402 23.0467 25.4789 23.1353 25.0338C23.2238 24.5887 23.4423 24.1799 23.7632 23.859C24.0841 23.5381 24.4929 23.3196 24.938 23.2311C25.383 23.1426 25.8444 23.188 26.2636 23.3616C26.6829 23.5353 27.0412 23.8294 27.2933 24.2067C27.5454 24.584 27.68 25.0276 27.68 25.4814C27.6743 26.0882 27.4308 26.6685 27.0017 27.0976C26.5727 27.5266 25.9923 27.7702 25.3856 27.7758ZM16.3308 17.2229H0V33.5537H12.3439L16.3254 29.6707L16.3308 17.2229ZM16.3308 38.4272L12.3493 34.4458H0V50.7766H12.3439L16.3254 46.8936L16.3308 38.4272Z" fill="black"/>
</g>
<defs>
<clipPath id="clip0_1_15">
<rect width="267" height="50.7712" fill="white"/>
</clipPath>
</defs>
</svg>
